<?xml version="1.0" encoding="UTF-8" standalone="no"?>
<svg
   xmlns:dc="http://purl.org/dc/elements/1.1/"
   xmlns:cc="http://creativecommons.org/ns#"
   xmlns:rdf="http://www.w3.org/1999/02/22-rdf-syntax-ns#"
   xmlns:svg="http://www.w3.org/2000/svg"
   xmlns="http://www.w3.org/2000/svg"
   viewBox="0 0 715.91998 132.50667"
   height="132.50667"
   width="715.91998"
   xml:space="preserve"
   id="svg2"
   version="1.1"><metadata
     id="metadata8"><rdf:RDF><cc:Work
         rdf:about=""><dc:format>image/svg+xml</dc:format><dc:type
           rdf:resource="http://purl.org/dc/dcmitype/StillImage" /></cc:Work></rdf:RDF></metadata><defs
     id="defs6" /><g
     transform="matrix(1.3333333,0,0,-1.3333333,0,132.50667)"
     id="g10"><g
       transform="scale(0.1)"
       id="g12"><path
         id="path14"
         style="fill:#231f20;fill-opacity:1;fill-rule:nonzero;stroke:none"
         d="m 3875.93,587.168 c 0,46.012 -30.49,92.555 -88.68,92.555 H 3688.5 V 401 h 44.44 v 232.426 h 54.31 c 28.48,0 43.85,-23.668 43.85,-46.258 0,-20.629 -13.77,-42.969 -43.85,-42.969 h -47.73 v -3.636 l 0.86,-20.829 L 3836.74,401 h 58.15 l -83.51,101.973 c 39.43,9.632 64.55,42.043 64.55,84.195" /><path
         id="path16"
         style="fill:#231f20;fill-opacity:1;fill-rule:nonzero;stroke:none"
         d="m 4112.84,506.07 c -12.53,-37.949 -44.21,-61.504 -83.04,-61.504 -23.97,0 -47.89,10.168 -63.84,27.176 -16.25,17.461 -25.2,40.875 -25.2,66.074 0,25.266 9.21,48.832 25.67,66.516 16.57,17.965 40.38,28.68 63.37,28.68 38.5,0 68,-21.446 81.03,-59.149 l 0.75,-2.383 h 44.49 l -1.04,4.403 c -15.52,62.523 -64.56,102.789 -125.23,102.789 -34.42,0 -69.89,-15.66 -94.89,-42.242 -24.45,-26.703 -37.87,-61.762 -37.87,-98.614 0,-35.253 14.18,-70.992 39.06,-98.089 24.09,-25.836 58.18,-40.774 93.7,-40.774 61.61,0 111.44,41.262 127.05,105.125 l 1.04,4.453 h -44.14 l -0.91,-2.461" /><path
         id="path18"
         style="fill:#231f20;fill-opacity:1;fill-rule:nonzero;stroke:none"
         d="m 4236.58,518.52 h 118.49 v 46.332 h -118.49 v 68.144 h 120.88 v 45.988 H 4191.3 V 400.973 h 166.6 v 45.945 h -121.32 v 71.602" /><path
         id="path20"
         style="fill:#231f20;fill-opacity:1;fill-rule:nonzero;stroke:none"
         d="m 4445.37,676.344 h -44.95 V 400.973 h 167.75 v 45.945 h -122.8 v 229.426" /><path
         id="path22"
         style="fill:#231f20;fill-opacity:1;fill-rule:nonzero;stroke:none"
         d="m 4707.33,443.141 c -52.19,0 -93.04,41.988 -93.04,95.414 0,53.082 41.81,96.035 93.04,96.035 51.45,0 93.39,-42.953 93.39,-96.035 0,-52.614 -41.94,-95.414 -93.39,-95.414 z m 0,238.507 c -76.7,0 -139.16,-64.066 -139.16,-143.093 0,-78.614 62.46,-142.547 139.16,-142.547 76.85,0 139.41,63.933 139.41,142.547 0,79.027 -62.56,143.093 -139.41,143.093" /><path
         id="path24"
         style="fill:#231f20;fill-opacity:1;fill-rule:nonzero;stroke:none"
         d="m 5040.21,495.664 -121.6,180.668 h -34.59 V 401 h 44.91 V 579.969 L 5049.54,401 h 35.41 v 275.332 h -44.74 V 495.664" /><path
         id="path26"
         style="fill:#231f20;fill-opacity:1;fill-rule:nonzero;stroke:none"
         d="m 5211.73,512.336 34.07,91.711 33.88,-91.711 z m 50.2,167.398 h -32.8 L 5121.5,400.973 h 48.55 l 25.33,67.875 h 100.94 l 24.96,-67.875 h 48.15 l -107.5,278.761" /><path
         id="path28"
         style="fill:#231f20;fill-opacity:1;fill-rule:nonzero;stroke:none"
         d="m 2582.47,284.102 c -150.88,1.992 -271.35,126.011 -269.2,276.664 1.9,150.797 125.93,271.289 276.56,269.328 150.82,-2.18 271.44,-126.043 269.28,-276.785 -2.13,-150.832 -126.02,-271.2 -276.64,-269.207 z m 440.54,266.929 c 3.13,241.215 -189.71,439.485 -430.79,442.746 -241.16,3.313 -439.56,-189.441 -442.82,-430.683 -3.26,-241.153 189.47,-439.434 430.79,-442.696 241.22,-3.433 439.48,189.36 442.82,430.633" /><path
         id="path30"
         style="fill:#231f20;fill-opacity:1;fill-rule:nonzero;stroke:none"
         d="M 2995,212.992 C 2936.03,213.793 2887.68,166.816 2887.04,107.977 2886.08,49.2188 2933.19,0.96875 2991.9,0.0117188 3050.71,-0.867188 3099.21,46.2695 3100,105.078 c 0.72,58.84 -46.31,107.141 -105,107.914" /><path
         id="path32"
         style="fill:#231f20;fill-opacity:1;fill-rule:nonzero;stroke:none"
         d="m 3326.41,445.758 h -77.06 v 78.109 h 77.06 c 23.59,0 34.45,-20.156 34.45,-38.75 0,-19.586 -11.95,-39.359 -34.45,-39.359 z m -77.06,189.222 h 67.62 c 8.64,0 15.92,-3.261 20.86,-9.589 4.56,-5.567 6.96,-13.336 6.96,-21.828 0,-17.04 -9.83,-34.165 -28.6,-34.165 h -66.84 z m 118.66,-82.031 c 21.1,19.047 28.37,48.442 18.85,76.364 -10.25,30.179 -37.77,49.671 -69.89,49.671 H 3204.83 V 401 h 121.58 c 51.91,0 79.16,42.508 79.16,84.477 0,29.871 -13.8,54.66 -37.56,67.472" /><path
         id="path34"
         style="fill:#231f20;fill-opacity:1;fill-rule:nonzero;stroke:none"
         d="m 3503.34,512.336 33.91,91.711 33.91,-91.711 z m 17.13,167.398 -107.62,-278.761 h 48.42 l 25.35,67.875 h 101.05 l 25.01,-67.875 h 47.99 l -107.45,278.761 h -32.75" /><path
         id="path36"
         style="fill:#231f20;fill-opacity:1;fill-rule:nonzero;stroke:none"
         d="m 136.117,588.074 1.371,4.606 c 13.121,43.422 47.801,69.312 92.965,69.312 49.227,0 84.258,-25.277 96.426,-69.312 l 1.437,-4.606 z m 96.75,182.391 C 120.609,770.465 0,698.414 0,540.121 0,384.434 117.883,310.918 227.301,308.691 h 4.422 c 100.722,0 185.882,55.629 218.504,142.372 H 312.336 c -19.094,-20.118 -46.867,-31.196 -78.488,-31.196 -46.442,0.832 -86.422,27.051 -101.391,66.516 l -1.777,4.883 h 330.144 c 3.145,16.199 4.504,32.265 4.504,48.855 0,157.149 -119.41,229.59 -232.461,230.344" /><path
         id="path38"
         style="fill:#231f20;fill-opacity:1;fill-rule:nonzero;stroke:none"
         d="m 712.234,411.305 c -42.168,0 -65.449,20.238 -65.449,56.816 v 183.867 h 95.481 v 106.707 h -95.481 v 98.641 L 521.332,846.063 V 468.121 c 0,-108.98 51.512,-161.992 157.645,-161.992 h 2.703 c 19.851,0 42.347,2.047 68.883,6.367 l -3.875,102.352 c -11.762,-2.328 -23.899,-3.543 -34.454,-3.543" /><path
         id="path40"
         style="fill:#231f20;fill-opacity:1;fill-rule:nonzero;stroke:none"
         d="m 1080.78,770.477 c -41.99,0 -99.022,-8.75 -132.339,-50.868 l -6.578,-8.14 v 52.379 H 814.691 V 313.789 h 134.063 v 244.867 c 0,59.106 47.023,95.707 90.746,95.707 36.91,0 74.61,-28.859 74.61,-93.211 V 313.789 h 128.05 v 248.152 c 0.97,138.981 -51.87,207.176 -161.38,208.536" /><path
         id="path42"
         style="fill:#231f20;fill-opacity:1;fill-rule:nonzero;stroke:none"
         d="m 1311.11,313.844 h 128.063 V 763.84 H 1311.11 Z" /><path
         id="path44"
         style="fill:#231f20;fill-opacity:1;fill-rule:nonzero;stroke:none"
         d="m 1730.01,428.281 c -29.06,0 -54.51,10.074 -73.35,29.278 -21.27,21.328 -32.98,52.675 -32.5,85.941 0.76,54.129 34.27,112.629 105.85,112.629 59.41,0 107.74,-51.453 107.74,-114.328 0,-62.653 -48.33,-113.52 -107.74,-113.52 z m 107.74,281.262 -6.6,8.371 c -26.8,34.625 -67.78,53.598 -115.36,53.598 -158.53,0 -216.42,-116.121 -217.84,-224.727 -0.53,-71.262 23.94,-137.035 66.98,-180.445 38.01,-38.313 89.63,-58.527 149.22,-58.527 50.76,0 90.25,16.875 117,50.242 l 6.6,7.898 v -52.164 h 125.4 v 450.035 h -125.4 v -54.281" /><path
         id="path46"
         style="fill:#231f20;fill-opacity:1;fill-rule:nonzero;stroke:none"
         d="m 1375.15,980.523 c -41.75,0 -75.8,-34.039 -75.8,-75.816 0,-41.91 34.05,-75.836 75.8,-75.836 41.91,0 75.96,33.926 75.96,75.836 0,41.777 -34.05,75.816 -75.96,75.816" /></g></g></svg>