<?xml version="1.0" encoding="UTF-8" standalone="no"?>
<svg
   xmlns:dc="http://purl.org/dc/elements/1.1/"
   xmlns:cc="http://creativecommons.org/ns#"
   xmlns:rdf="http://www.w3.org/1999/02/22-rdf-syntax-ns#"
   xmlns:svg="http://www.w3.org/2000/svg"
   xmlns="http://www.w3.org/2000/svg"
   viewBox="0 0 604 604"
   height="604"
   width="604"
   xml:space="preserve"
   id="svg2"
   version="1.1"><metadata
     id="metadata8"><rdf:RDF><cc:Work
         rdf:about=""><dc:format>image/svg+xml</dc:format><dc:type
           rdf:resource="http://purl.org/dc/dcmitype/StillImage" /></cc:Work></rdf:RDF></metadata><defs
     id="defs6" /><g
     transform="matrix(1.3333333,0,0,-1.3333333,0,604)"
     id="g10"><g
       transform="scale(0.1)"
       id="g12"><path
         id="path14"
         style="fill:#231f20;fill-opacity:1;fill-rule:nonzero;stroke:none"
         d="m 4192.5,2446.32 v 14.16 h -199.86 v -14.16 h 31.05 v -272.44 l -186.28,286.6 h -86.63 v -14.16 h 30.92 v -365.35 h -53.66 l -135.05,396.82 -138.88,-396.82 h -51.73 v 365.35 h 31.1 v 14.16 h -82 l -103.3,-299.32 -108.34,299.32 h -80.43 v -14.16 h 31 v -365.35 h -61.48 c -17.41,0 -32.68,15.56 -32.68,41.94 v 57.66 c 0,44.09 -14.3,81.07 -58.54,93.61 38.49,11.65 65.36,48.46 65.36,87.79 0,55.93 -41.78,98.51 -122.48,98.51 h -120.46 v -14.16 h 30.95 v -365.35 h -62.47 l -135.09,396.82 -139.45,-396.82 h -27.41 v -14.08 h 77.86 v 14.08 h -34.43 l 38.89,110.84 h 126.61 l 37.1,-110.84 h -47.6 v -14.08 h 263.59 v 14.08 h -47.85 v 186.22 h 32.13 c 46.85,0 70.45,-19.21 70.45,-64.73 v -33.8 c 0,-80.3 52.89,-101.77 81.72,-101.77 h 113.22 v 14.08 h -33.76 v 323.55 l 127.09,-341.85 120.05,352.01 v -333.71 h -30.94 v -14.08 h 183.68 v 14.08 h -34.38 l 38.86,110.84 h 126.12 l 37.03,-110.84 h -47.53 v -14.08 h 202.38 v 14.08 h -31.15 v 345.16 l 242.05,-372.14 v 392.33 h 72.97 v -365.35 h -30.97 v -14.08 h 112.65 v 14.08 h -31.02 v 365.35 z m -1678.86,-240.62 59.45,172.51 58,-172.51 z m 359.32,75.65 h -32.13 v 164.97 h 26.68 c 47.19,0 78.92,-30.41 78.92,-86.53 0,-30.92 -24.22,-78.44 -73.47,-78.44 z m 640.63,-75.65 59.46,172.51 57.52,-172.51 h -116.98" /><path
         id="path16"
         style="fill:#231f20;fill-opacity:1;fill-rule:nonzero;stroke:none"
         d="m 2075.95,2469.92 c -103.24,0 -170.41,-115.2 -170.41,-206.54 0,-99.72 72.77,-205.94 170.41,-205.94 98.1,0 170.98,99.82 170.98,205.94 0,91.43 -72.7,206.54 -170.98,206.54 z m 0,-398.87 c -98.89,0 -104.51,130.33 -104.51,192.33 0,61.55 7.43,192.37 104.51,192.37 97.44,0 105.6,-130.85 105.6,-192.37 0,-61.5 -6.35,-192.33 -105.6,-192.33" /><path
         id="path18"
         style="fill:#231f20;fill-opacity:1;fill-rule:nonzero;stroke:none"
         d="m 1776.78,2446.32 h 31.04 v -365.35 h -31.04 v -14.08 h 112.68 v 14.08 h -31.05 v 365.35 h 31.05 v 14.16 h -112.68 v -14.16" /><path
         id="path20"
         style="fill:#231f20;fill-opacity:1;fill-rule:nonzero;stroke:none"
         d="m 1427.95,2077.63 c -17.36,0 -32.68,16.04 -32.68,42.47 v 60.47 c 0,44.54 -14.24,81.07 -58.47,93.61 38.47,11.66 65.29,48.46 65.29,87.79 0,55.93 -41.73,98.51 -121.57,98.51 h -121.3 v -14.16 h 30.95 v -365.36 h -30.95 v -14.07 h 129.47 v 14.07 h -47.93 v 186.23 h 32.13 c 45.99,0 69.6,-19.36 69.6,-64.73 v -37.69 c 0,-80.29 52.82,-101.77 81.64,-101.77 18.4,0 26.93,5.76 35.39,13.47 l -8.34,11.5 c -10.85,-9.4 -18.14,-10.34 -23.23,-10.34 z m -155.06,203.72 h -32.13 v 164.97 h 26.68 c 46.34,0 78.07,-30.41 78.07,-86.53 0,-30.92 -24.21,-78.44 -72.62,-78.44" /><path
         id="path22"
         style="fill:#231f20;fill-opacity:1;fill-rule:nonzero;stroke:none"
         d="m 973.012,2469.92 c -103.782,0 -170.957,-115.2 -170.957,-206.54 0,-99.72 72.781,-205.94 170.957,-205.94 98.178,0 170.978,99.82 170.978,205.94 0,91.43 -72.63,206.54 -170.978,206.54 z m 0,-398.87 c -99.426,0 -105.051,130.33 -105.051,192.33 0,61.55 7.426,192.37 105.051,192.37 97.508,0 105.688,-130.85 105.688,-192.37 0,-61.5 -6.36,-192.33 -105.688,-192.33" /><path
         id="path24"
         style="fill:#231f20;fill-opacity:1;fill-rule:nonzero;stroke:none"
         d="m 673.359,2446.32 h 31.043 v -365.35 h -31.043 v -14.08 h 112.68 l -0.008,14.08 h -30.972 v 365.35 h 30.98 v 14.16 h -112.68 v -14.16" /><path
         id="path26"
         style="fill:#231f20;fill-opacity:1;fill-rule:nonzero;stroke:none"
         d="m 546.879,2220.96 h 35.949 v -71.35 c 0,-36.96 -27.496,-78.56 -76.793,-78.56 -93.519,0 -102.879,118.36 -102.879,192.31 0,67.46 7.172,192.39 110.219,192.39 39.148,0 81.945,-34.93 90.84,-112.14 h 12.656 v 124.67 h -12.476 c -2.282,-13.43 -9.313,-19.22 -23.2,-19.22 -13.765,0 -29.89,20.86 -68.082,20.86 -116.39,0 -175.867,-123.47 -175.867,-206.56 0,-87.4 66.043,-205.92 168.789,-205.92 55.434,0 60.356,33.33 94.227,33.33 10.441,0 17.535,-9.81 18.871,-23.88 h 14.277 v 154.07 h 31.059 v 14.09 h -117.59 v -14.09" /><path
         id="path28"
         style="fill:#231f20;fill-opacity:1;fill-rule:nonzero;stroke:none"
         d="m 1649.82,2220.96 h 36.4 v -71.35 c 0,-36.96 -27.97,-78.56 -77.27,-78.56 -93.52,0 -102.86,118.36 -102.86,192.31 0,67.46 7.16,192.39 110.21,192.39 39.16,0 82.41,-34.93 91.32,-112.14 h 12.65 v 124.67 h -12.49 c -2.27,-13.43 -9.31,-19.22 -23.19,-19.22 -13.7,0 -30.37,20.86 -68.56,20.86 -116.39,0 -175.85,-123.47 -175.85,-206.56 0,-87.4 66.03,-205.92 168.77,-205.92 56,0 60.91,33.33 94.71,33.33 10.44,0 17.54,-9.81 18.86,-23.88 h 14.38 l -0.02,154.07 h 31.06 v 14.09 h -118.12 v -14.09" /></g></g></svg>