<?xml version="1.0" encoding="UTF-8" standalone="no"?>
<svg
   xmlns:dc="http://purl.org/dc/elements/1.1/"
   xmlns:cc="http://creativecommons.org/ns#"
   xmlns:rdf="http://www.w3.org/1999/02/22-rdf-syntax-ns#"
   xmlns:svg="http://www.w3.org/2000/svg"
   xmlns="http://www.w3.org/2000/svg"
   viewBox="0 0 901.33331 901.33331"
   height="901.33331"
   width="901.33331"
   xml:space="preserve"
   id="svg2"
   version="1.1"><metadata
     id="metadata8"><rdf:RDF><cc:Work
         rdf:about=""><dc:format>image/svg+xml</dc:format><dc:type
           rdf:resource="http://purl.org/dc/dcmitype/StillImage" /></cc:Work></rdf:RDF></metadata><defs
     id="defs6" /><g
     transform="matrix(1.3333333,0,0,-1.3333333,0,901.33333)"
     id="g10"><g
       transform="scale(0.1)"
       id="g12"><path
         id="path14"
         style="fill:#231f20;fill-opacity:1;fill-rule:evenodd;stroke:none"
         d="m 891.52,3769.9 80.277,-87.37 v -639.55 l -59.496,-83.69 364.399,-0.54 -65.68,77.01 -6.83,230.32 351.37,-1.86 c 106.51,34.22 215.97,107.2 221.24,254.71 -1.67,142.92 -92.09,234.61 -197.07,252.84 z m 299.66,-40.89 v -410.87 l 269.57,-1.86 c 61.36,47.72 107.83,84.27 105.97,198.91 -0.88,93.47 -21.31,174.97 -111.55,213.82 h -263.99" /><path
         id="path16"
         style="fill:none;stroke:#231f20;stroke-width:10.00059986;stroke-linecap:butt;stroke-linejoin:miter;stroke-miterlimit:2.61310005;stroke-dasharray:none;stroke-opacity:1"
         d="m 891.52,3769.9 80.277,-87.37 v -639.55 l -59.496,-83.69 364.399,-0.54 -65.68,77.01 -6.83,230.32 351.37,-1.86 c 106.51,34.22 215.97,107.2 221.24,254.71 -1.67,142.92 -92.09,234.61 -197.07,252.84 z m 299.66,-40.89 v -410.87 l 269.57,-1.86 c 61.36,47.72 107.83,84.27 105.97,198.91 -0.88,93.47 -21.31,174.97 -111.55,213.82 z" /><path
         id="path18"
         style="fill:#231f20;fill-opacity:1;fill-rule:evenodd;stroke:none"
         d="m 1945.44,3774.56 80.27,-87.39 v -639.53 l -59.49,-83.7 364.39,-0.53 -65.68,77 -6.82,230.31 h 1.46 l 376.47,-309.94 312.41,2.47 -285.14,238.05 h -238.04 l -83.89,68.99 268.09,-1.41 c 106.5,34.21 215.98,107.19 221.24,254.69 -1.67,142.93 -92.09,234.63 -197.06,252.84 z m 299.65,-40.9 v -410.87 l 269.57,-1.86 c 61.36,47.72 107.83,84.28 105.98,198.93 -0.89,93.45 -21.32,174.95 -111.56,213.8 h -263.99" /><path
         id="path20"
         style="fill:none;stroke:#231f20;stroke-width:10.00059986;stroke-linecap:butt;stroke-linejoin:miter;stroke-miterlimit:2.61310005;stroke-dasharray:none;stroke-opacity:1"
         d="m 1945.44,3774.56 80.27,-87.39 v -639.53 l -59.49,-83.7 364.39,-0.53 -65.68,77 -6.82,230.31 h 1.46 l 376.47,-309.94 312.41,2.47 -285.14,238.05 h -238.04 l -83.89,68.99 268.09,-1.41 c 106.5,34.21 215.98,107.19 221.24,254.69 -1.67,142.93 -92.09,234.63 -197.06,252.84 z m 299.65,-40.9 v -410.87 l 269.57,-1.86 c 61.36,47.72 107.83,84.28 105.98,198.93 -0.89,93.45 -21.32,174.95 -111.56,213.8 z" /><path
         id="path22"
         style="fill:#231f20;fill-opacity:1;fill-rule:evenodd;stroke:none"
         d="m 3249.23,3775.47 h 314.2 l 409,-732.49 c 17.7,-56.56 70.65,-49.57 105.98,-74.36 h -396 l 59.5,17.97 -3.73,54.54 -102.25,158.02 -347.66,-1.86 -74.36,-152.45 c -2.48,-17.35 -21.69,-30.52 -7.44,-52.05 l 27.89,-26.03 -171.04,3.72 74.39,22.31 280.7,570.75 v 39.04 l -118.59,152.68 z m 61.02,-526.03 144.4,263.85 150.35,-262.36 -294.75,-1.49" /><path
         id="path24"
         style="fill:none;stroke:#231f20;stroke-width:10.00059986;stroke-linecap:butt;stroke-linejoin:miter;stroke-miterlimit:2.61310005;stroke-dasharray:none;stroke-opacity:1"
         d="m 3249.23,3775.47 h 314.2 l 409,-732.49 c 17.7,-56.56 70.65,-49.57 105.98,-74.36 h -396 l 59.5,17.97 -3.73,54.54 -102.25,158.02 -347.66,-1.86 -74.36,-152.45 c -2.48,-17.35 -21.69,-30.52 -7.44,-52.05 l 27.89,-26.03 -171.04,3.72 74.39,22.31 280.7,570.75 v 39.04 l -118.59,152.68 z m 61.02,-526.03 144.4,263.85 150.35,-262.36 z" /><path
         id="path26"
         style="fill:#231f20;fill-opacity:1;fill-rule:evenodd;stroke:none"
         d="m 5373.89,3773.89 h 314.2 l 409.01,-732.5 c 17.69,-56.56 70.65,-49.58 105.97,-74.37 h -396 l 59.49,17.98 -3.71,54.53 -102.26,158.03 -347.65,-1.87 -74.37,-152.44 c -2.47,-17.36 -21.69,-30.52 -7.43,-52.05 l 27.88,-26.04 -171.04,3.72 74.38,22.32 280.71,570.75 v 39.04 l -118.6,152.68 z m 61.02,-526.05 144.4,263.86 150.35,-262.37 -294.75,-1.49" /><path
         id="path28"
         style="fill:none;stroke:#231f20;stroke-width:10.00059986;stroke-linecap:butt;stroke-linejoin:miter;stroke-miterlimit:2.61310005;stroke-dasharray:none;stroke-opacity:1"
         d="m 5373.89,3773.89 h 314.2 l 409.01,-732.5 c 17.69,-56.56 70.65,-49.58 105.97,-74.37 h -396 l 59.49,17.98 -3.71,54.53 -102.26,158.03 -347.65,-1.87 -74.37,-152.44 c -2.47,-17.36 -21.69,-30.52 -7.43,-52.05 l 27.88,-26.04 -171.04,3.72 74.38,22.32 280.71,570.75 v 39.04 l -118.6,152.68 z m 61.02,-526.05 144.4,263.86 150.35,-262.37 z" /><path
         id="path30"
         style="fill:#231f20;fill-opacity:1;fill-rule:evenodd;stroke:none"
         d="m 4187.06,3783.11 559.73,-2.99 c 180.23,-40.73 294.91,-147.01 330.48,-332.42 l -1.49,-144.6 c -32.85,-165.18 -140.56,-279.16 -330.48,-336.89 l -561.21,-1.49 -0.09,17.48 c 85.32,6.2 92.17,15.61 92.38,64.5 v 658.89 c -0.95,36.14 -8.44,58.64 -90.81,61.12 z m 318.18,-56.4 -0.56,-712.85 c 73.83,-0.25 137.84,-6.93 174.04,10.9 81.98,36.1 120.07,91.62 123.55,143.76 l -1.96,420.93 c 0.01,67.34 -75.71,114.87 -119.43,127.26 -31.26,11.2 -93.63,11.65 -175.64,10" /><path
         id="path32"
         style="fill:none;stroke:#231f20;stroke-width:10.00059986;stroke-linecap:butt;stroke-linejoin:miter;stroke-miterlimit:2.61310005;stroke-dasharray:none;stroke-opacity:1"
         d="m 4187.06,3783.11 559.73,-2.99 c 180.23,-40.73 294.91,-147.01 330.48,-332.42 l -1.49,-144.6 c -32.85,-165.18 -140.56,-279.16 -330.48,-336.89 l -561.21,-1.49 -0.09,17.48 c 85.32,6.2 92.17,15.61 92.38,64.5 v 658.89 c -0.95,36.14 -8.44,58.64 -90.81,61.12 z m 318.18,-56.4 -0.56,-712.85 c 73.83,-0.25 137.84,-6.93 174.04,10.9 81.98,36.1 120.07,91.62 123.55,143.76 l -1.96,420.93 c 0.01,67.34 -75.71,114.87 -119.43,127.26 -31.26,11.2 -93.63,11.65 -175.64,10 z" /></g></g></svg>