<?xml version="1.0" encoding="UTF-8" standalone="no"?>
<svg
   xmlns:dc="http://purl.org/dc/elements/1.1/"
   xmlns:cc="http://creativecommons.org/ns#"
   xmlns:rdf="http://www.w3.org/1999/02/22-rdf-syntax-ns#"
   xmlns:svg="http://www.w3.org/2000/svg"
   xmlns="http://www.w3.org/2000/svg"
   viewBox="0 0 257.33334 257.33334"
   height="257.33334"
   width="257.33334"
   xml:space="preserve"
   id="svg2"
   version="1.1"><metadata
     id="metadata8"><rdf:RDF><cc:Work
         rdf:about=""><dc:format>image/svg+xml</dc:format><dc:type
           rdf:resource="http://purl.org/dc/dcmitype/StillImage" /></cc:Work></rdf:RDF></metadata><defs
     id="defs6" /><g
     transform="matrix(1.3333333,0,0,-1.3333333,0,257.33333)"
     id="g10"><g
       transform="scale(0.1)"
       id="g12"><path
         id="path14"
         style="fill:#ffffff;fill-opacity:1;fill-rule:evenodd;stroke:none"
         d="M 0,0 H 1927.56 V 1927.56 H 0 Z" /><path
         id="path16"
         style="fill:#ed1c2a;fill-opacity:1;fill-rule:evenodd;stroke:none"
         d="m 85.0391,465.32 h 1757.48 v 996.922 H 85.0391 Z" /><path
         id="path18"
         style="fill:#ffffff;fill-opacity:1;fill-rule:evenodd;stroke:none"
         d="m 1046.4,932.203 c 20.53,0 34.35,-12.402 34.35,-26.551 0,-19.601 -20.54,-48.382 -59.86,-48.382 -29.417,0 -33.773,18.484 -33.773,26.668 0,14.64 21.583,48.265 59.283,48.265" /><path
         id="path20"
         style="fill:#ffffff;fill-opacity:1;fill-rule:evenodd;stroke:none"
         d="m 1125.06,843.246 c 0,9.18 2.25,35.856 2.25,50.496 l -3.34,247.028 c 0,64.14 19.65,106.58 39.19,134.25 19.32,27.29 63.95,78.16 125.97,78.16 47.72,0 72.59,-37.97 72.59,-79.9 0,-46.15 -16.04,-83.01 -70.92,-133.01 -54.87,-50 -68.16,-51.48 -68.16,-65.75 0,-13.53 17.67,-22.22 27.11,-28.79 9.47,-6.45 46.57,-31.52 64.86,-47.269 18.27,-15.633 23.84,-26.555 23.84,-41.691 0,-26.18 -11.6,-40.696 -22.7,-57.071 -17.77,-26.179 -83.77,-91.812 -117.54,-154.844 -7.79,-12.41 -14.08,-12.285 -19.38,-5.457 -9.55,12.403 -17.19,21.836 -19.94,30.52 -2.75,8.684 -7.78,22.832 1.1,36.352 8.88,13.527 71.49,89.582 93.61,117.25 19.39,24.316 18.86,58.683 4.47,72.335 -14.4,13.525 -47.27,42.305 -57.05,53.715 -8.3,9.81 -14.39,30.28 0,46.66 45.41,51.61 94.19,109.8 94.19,167.37 0,32.63 -21.66,54.84 -38.8,54.84 -41.5,0 -77.58,-76.05 -79.23,-145.04 l 7.75,-269.361 c 0,-20.101 0.46,-29.773 -14.93,-47.394 -14.7,-16.747 -29.4,-22.082 -37.72,-22.082 -4.41,0 -7.22,3.222 -7.22,8.683" /><path
         id="path22"
         style="fill:#ffffff;fill-opacity:1;fill-rule:evenodd;stroke:none"
         d="m 1708.03,1115.21 c 0,-9.18 7.66,-16.75 17.07,-16.75 9.38,0 17.03,7.57 17.03,16.75 0,9.18 -7.65,16.75 -17.03,16.75 -9.41,0 -17.07,-7.57 -17.07,-16.75 z m 4.91,0 c 0,7.69 5.29,13.03 12.16,13.03 6.75,0 12.12,-5.34 12.12,-13.03 0,-7.69 -5.37,-13.03 -12.12,-13.03 -6.87,0 -12.16,5.34 -12.16,13.03 z m 5.29,-9.18 h 4.07 v 7.82 h 1.93 l 4.54,-7.82 h 4.17 l -5.01,8.06 c 2.93,0.13 5.01,1.49 5.01,4.84 0,4.22 -2.75,5.59 -7.57,5.59 h -7.14 z m 4.07,10.92 v 4.46 h 2.9 c 1.6,0 3.66,-0.12 3.66,-2.11 0,-2.1 -1.32,-2.35 -3.25,-2.35 h -3.31" /><path
         id="path24"
         style="fill:#ffffff;fill-opacity:1;fill-rule:evenodd;stroke:none"
         d="m 613.305,732.074 c 0,42.434 39.898,105.094 77.293,105.094 6.664,0 10.82,-1.617 18.289,-1.617 9.144,0 14.144,18.738 28.273,18.738 12.461,0 24.371,-4.094 24.371,-34.117 0,-14.77 11.938,-38.344 21.34,-38.344 20.793,0 34.145,57.445 44.07,84.738 2.543,6.954 9.977,13.774 15.793,13.774 11.118,0 16.364,-8.309 17.457,-17.617 1.094,-9.18 2.719,-50.993 13.836,-50.993 13.387,0 25.543,37.969 36.032,59.184 10.507,21.219 22.144,39.082 30.461,39.082 8.324,0 7.378,-7.566 7.23,-14.144 -1.676,-59.68 -4.48,-328.043 -3.91,-332.887 0.57,-4.836 -2.231,-8.684 -6.649,-8.684 -4.418,0 -28.847,-0.621 -33.238,-0.621 -4.418,0 -7.234,4.965 -7.234,9.305 l 2.816,219.359 c 0,12.531 -7.594,10.176 -12.742,2.731 -15.543,-22.703 -25.461,-37.469 -41.563,-37.469 -27.234,0 -15.484,34.242 -27.187,34.242 -11.684,0 -29.387,-56.453 -62.07,-56.453 -31.586,0 -23.848,34.742 -34.914,34.742 -12.743,0 -37.668,-61.414 -79.235,-61.414 -12.219,0 -28.519,4.59 -28.519,33.371" /><path
         id="path26"
         style="fill:#ed1c2a;fill-opacity:1;fill-rule:evenodd;stroke:none"
         d="m 660.684,745.477 c 0,16.253 30.968,65.632 45.414,65.632 4.968,0 8.308,-4.839 8.308,-10.296 0,-14.645 -32.633,-65.141 -45.406,-65.141 -4.469,0 -8.316,2.234 -8.316,9.805" /><path
         id="path28"
         style="fill:#ffffff;fill-opacity:1;fill-rule:evenodd;stroke:none"
         d="m 1355.66,928.484 c 0,42.926 43.26,117.866 90.35,117.866 6.65,0 14.39,1.61 18.78,6.45 4.42,4.97 8.38,10.92 17.21,10.92 14.92,0 18.18,-13.65 19.94,-24.94 2.77,-17.99 5.05,-47.885 18.3,-47.885 9.98,0 13.45,9.305 18.88,22.205 4.96,11.91 24.3,53.35 31.53,66.38 7.21,13.02 15.48,16.25 21.59,16.25 6.13,0 14.96,-5.95 14.96,-14.14 0,-8.19 1.17,-27.18 1.17,-27.18 0,-9.67 7.98,-11.53 14.43,3.86 7.74,18.48 23.28,57.56 43.75,57.56 14.35,0 18.79,-13.53 23.81,-32.01 4.99,-18.49 13.34,-56.45 34.38,-56.45 6.65,0 18.3,10.17 23.26,5.33 4.59,-4.46 -7.16,-20.59 -16.61,-31.39 -9.44,-10.912 -19.95,-21.212 -34.9,-21.212 -14.99,0 -25.94,5.582 -33.27,23.322 -6.08,14.64 -9.45,40.2 -18.29,40.2 -7.79,0 -12.81,-12.53 -22.22,-32.63 -9.41,-20.095 -28.17,-57.568 -47.6,-57.568 -12.83,0 -15.52,9.801 -15.52,26.055 0,6.574 -4.64,13.152 -12.23,-0.497 -12.73,-22.828 -24.37,-49.382 -48.74,-49.382 -21.04,0 -28.62,16.75 -32.15,29.285 -1.68,5.953 -6.07,10.914 -11.07,3.222 -4.98,-7.57 -29.92,-39.578 -41.58,-49.378 -11.63,-9.801 -21.07,-17.372 -36.05,-17.372 -14.96,0 -22.11,10.793 -22.11,33.129" /><path
         id="path30"
         style="fill:#ed1c2a;fill-opacity:1;fill-rule:evenodd;stroke:none"
         d="m 1405.52,958.387 c 0,14.64 30.49,56.943 44.9,56.943 4.94,0 6.63,-3.22 6.63,-7.07 0,-10.92 -28.25,-60.795 -43.23,-60.795 -4.97,0 -8.3,5.461 -8.3,10.922" /><path
         id="path32"
         style="fill:#ffffff;fill-opacity:1;fill-rule:evenodd;stroke:none"
         d="m 467.07,681.203 c 0,8.195 -7.57,11.047 -7.57,11.047 l -73.152,33.375 c -12.465,5.707 -10.805,11.414 0,17.867 l 71.492,44.043 c 8.328,4.84 9.156,11.414 9.156,20.352 l -0.828,229.653 c 0,7.45 0.828,12.28 7.465,16.38 l 28.277,17.87 c 11.637,5.71 22.43,5.71 22.43,-8.07 V 854.289 c 0,-9.801 4.84,-17.121 17.461,-7.32 68.164,52.976 134.679,108.312 134.679,193.051 0,48.89 -31.601,79.04 -75.648,79.04 -107.23,0 -285.715,-119.607 -351.644,-163.779 -14.915,-9.926 -50.708,-39.828 -57.372,-46.402 -6.636,-6.449 -13.289,-8.934 -13.289,4.094 0,13.027 0.836,31.019 0.836,45.66 0,14.64 5.395,44.667 26.598,57.817 147.969,92.06 286.805,148.26 383.234,148.26 96.414,0 129.68,-63.52 129.68,-109.18 0,-85.483 -64.008,-162.159 -188.715,-254.964 -5.82,-4.964 -5.82,-13.902 -5.82,-16.257 v -43.172 c 0,-9.805 5,-15.512 14.144,-19.606 l 193.692,-89.582 c 19.121,-9.054 17.445,-21.215 14.129,-27.668 -3.321,-6.578 -6.387,-15.633 -10.793,-19.605 -9.989,-8.93 -18.297,-11.41 -34.926,-4.961 l -160.449,75.062 c -9.145,5.711 -15.797,1.618 -16.614,-5.707 l 1.653,-39.949 c 0,-9.805 -3.328,-20.348 -14.125,-26.922 -10.817,-6.453 -23.281,-14.644 -29.934,-17.867 -6.64,-3.352 -13.301,-4.965 -13.301,6.449 0,11.418 -0.992,104.348 -0.836,104.348 0,0 0.09,-2.109 0.09,6.074" /></g></g></svg>