<?xml version="1.0" encoding="UTF-8" standalone="no"?>
<svg
   xmlns:dc="http://purl.org/dc/elements/1.1/"
   xmlns:cc="http://creativecommons.org/ns#"
   xmlns:rdf="http://www.w3.org/1999/02/22-rdf-syntax-ns#"
   xmlns:svg="http://www.w3.org/2000/svg"
   xmlns="http://www.w3.org/2000/svg"
   viewBox="0 0 258.66666 258.66666"
   height="258.66666"
   width="258.66666"
   xml:space="preserve"
   id="svg2"
   version="1.1"><metadata
     id="metadata8"><rdf:RDF><cc:Work
         rdf:about=""><dc:format>image/svg+xml</dc:format><dc:type
           rdf:resource="http://purl.org/dc/dcmitype/StillImage" /></cc:Work></rdf:RDF></metadata><defs
     id="defs6" /><g
     transform="matrix(1.3333333,0,0,-1.3333333,0,258.66667)"
     id="g10"><g
       transform="scale(0.1)"
       id="g12"><path
         id="path14"
         style="fill:#ffffff;fill-opacity:1;fill-rule:evenodd;stroke:none"
         d="M 2.59766,5.66797 H 1930.1577 V 1933.228 H 2.59766 Z" /><path
         id="path16"
         style="fill:#231f20;fill-opacity:1;fill-rule:evenodd;stroke:none"
         d="m 308.336,1114.19 c -0.484,7.83 -0.484,15.49 -0.484,23.31 0,5.06 0.16,10.27 0.16,15.33 5.543,143.95 55.265,273.22 141.668,385.38 144.929,180.47 354.734,272.58 588.51,249.92 149.65,-16.31 281.38,-78.42 391.58,-186.34 121.78,-122.1 188.62,-279.09 194.65,-448.96 0.49,-7.67 0.49,-15.49 0.49,-23.15 0,-5.05 0,-10.27 -0.16,-15.49 C 1619.2,970.406 1569.48,841.133 1483.08,728.969 1338.15,548.504 1128.5,456.398 894.73,478.898 744.914,495.199 613.191,557.309 502.984,665.395 381.211,787.496 314.535,944.488 308.336,1114.19 Z m 1303.524,0 c 8.16,260.02 -146.88,508.96 -391.09,613.29 -76.45,32.61 -158.94,51.02 -248.442,52.49 -23.312,-0.65 -50.047,-1.47 -73.359,-4.07 C 686.063,1755.2 483.59,1615 389.035,1420.19 c -41.57,-81.68 -64.234,-170.69 -68.469,-267.36 -7.66,-260.021 147.207,-508.959 391.418,-613.127 76.454,-32.609 158.946,-51.191 248.446,-52.66 23.312,0.82 50.04,1.469 73.36,4.078 213.07,20.703 415.38,160.902 509.93,355.879 41.57,81.672 64.39,170.68 68.47,267.19 z m -131.06,370.39 -34.08,-23.31 -6.52,2.93 c -9.94,11.74 -18.75,28.37 -31.13,38.48 h -1.8 l -17.44,-15.17 3.58,-4.4 c -3.26,0.98 -6.52,1.79 -10.11,2.45 -2.92,0.32 -5.7,1.14 -8.47,2.12 l -1.3,1.62 35.54,31.47 c 14.02,-14.02 24.12,-30 36.35,-45.16 7.01,2.94 13.69,8.15 19.88,13.37 -15.81,25.11 -36.67,50.21 -58.03,71.4 l -2.61,-0.49 c -18.09,-16.14 -33.58,-33.91 -51.35,-49.07 -22.98,21.36 -45.48,43.21 -71.4,60.16 l -2.28,2.61 c 9.29,13.37 18.09,26.73 27.71,39.61 13.69,-10.27 28.53,-21.52 43.37,-32.6 5.21,4.89 10.26,11.58 14.34,17.12 v 2.12 c -21.03,18.91 -43.53,35.21 -66.84,50.04 h -3.1 c -12.55,-19.72 -26.24,-38.96 -36.84,-59.17 l -1.96,-1.47 c -26.57,16.14 -53.96,31.79 -82.81,43.53 5.87,14.83 10.76,30.32 18.09,44.83 17.45,-7.01 33.75,-16.63 51.03,-23.64 l 10.76,20.21 c -4.4,5.22 -11.09,7.5 -16.95,10.76 -19.73,9.62 -39.95,18.59 -60.65,25.6 l -1.96,-1.14 -23.63,-66.51 -1.47,-0.82 c -15.49,4.89 -31.14,9.94 -46.63,14.02 -14.34,4.56 -29.99,6.03 -45.15,8.97 1.47,15.81 5.54,31.79 7.5,48.09 l 1.47,0.65 c 17.27,-4.4 35.53,-7.01 52.49,-11.41 2.12,7.82 4.73,15.48 6.19,23.64 -26.57,7.82 -53.96,13.36 -82.49,15.97 -2.93,-21.68 -5.38,-43.69 -8.47,-65.53 -3.1,4.07 -5.55,8.96 -7.67,13.53 -0.16,1.3 -0.49,2.28 -0.98,3.42 2.61,20.05 3.43,41.08 6.85,60.32 3.75,1.47 5.87,-0.33 9.62,-0.33 34.07,-4.07 67,-10.76 98.79,-20.05 -4.4,-14.67 -8.97,-29.51 -13.04,-44.34 -9.95,0.81 -19.89,5.21 -30.32,6.68 -7.01,1.79 -14.68,3.26 -22.5,4.08 -2.93,-7.34 -2.93,-15.98 -4.89,-23.97 6.36,-2.28 13.37,-2.6 19.72,-4.89 17.78,-4.4 35.38,-8.8 52.82,-14.34 8.48,22.49 14.52,46.13 22.99,68.79 36.19,-10.75 69.94,-26.73 103.52,-44.5 l 1.14,-1.14 c -7.5,-13.54 -15.16,-27.72 -22.66,-41.41 -15.81,7.82 -31.3,17.12 -47.93,23.32 -2.61,-0.33 -2.61,-3.27 -3.75,-5.06 l -7.5,-17.12 c 21.52,-11.41 43.7,-20.7 64.4,-34.07 14.01,20.05 25.59,41.89 38.8,61.78 31.95,-18.75 62.27,-42.06 91.45,-66.84 l -0.32,-2.28 -29.35,-32.93 h -3.26 c -11.41,10.44 -25.1,21.52 -37.33,30.65 l -2.28,0.49 -14.02,-18.91 c 18.91,-15.98 39.12,-32.93 58.03,-50.7 l 51.52,51.02 c 28.36,-27.71 53.96,-58.69 76.45,-90.64 z m 14.5,-45.65 -7.17,-3.91 c -3.43,2.61 -7.01,5.05 -10.43,7.66 7.82,4.4 15.49,8.97 23.14,13.7 15.49,-24.13 28.7,-49.4 39.62,-75.49 -1.96,2.61 -3.91,5.06 -6.19,7.02 -5.55,9.45 -14.19,17.77 -21.85,26.08 -4.56,8.48 -9.29,17.12 -14.83,24.94 z m -1054.097,5.55 36.356,-21.36 c -2.121,-2.93 -5.383,-5.54 -7.829,-8.48 -14.996,8.32 -29.832,16.31 -44.503,25.11 4.398,9.62 9.945,18.91 15.976,28.04 16.137,25.92 35.051,50.05 55.43,73.36 h 1.789 c 10.437,-10.11 22.988,-20.05 33.258,-29.67 -10.27,-15.82 -24.289,-31.46 -35.047,-47.28 l 0.324,-1.47 2.77,-1.95 c -3.422,-2.77 -6.848,-5.71 -9.778,-8.97 -3.426,2.28 -6.851,4.73 -10.273,7.17 v 1.8 c 11.41,15.97 23.637,32.28 35.375,47.76 -4.078,5.87 -10.598,9.3 -16.629,14.35 h -2.934 c -20.703,-24.78 -40.265,-50.54 -54.285,-78.41 z m -10.598,-244.37 c -0.98,-6.86 -1.792,-13.86 -2.445,-21.2 -4.402,-1.46 -10.273,-0.65 -15.16,-0.33 l -32.113,2.94 c -0.332,16.63 3.586,33.09 5.867,49.72 l 1.305,0.49 c 1.953,-6.68 3.586,-13.69 6.847,-19.89 -0.816,-6.2 -1.468,-12.39 -1.797,-18.42 7.668,-1.79 15.489,-2.61 23.641,-2.93 l 1.305,8.15 h 2.605 c 3.914,-1.3 7.012,0 9.945,1.47 z m -2.445,186.49 c -2.605,0.98 -5.375,1.96 -7.336,3.59 -2.609,0.65 -5.543,2.61 -8.152,1.79 -5.055,-9.94 -9.781,-20.05 -14.18,-30.32 -7.172,-7.01 -14.019,-14.02 -20.051,-21.84 8.477,23.8 18.094,47.11 29.829,69.6 l 1.796,0.66 c 9.618,-5.38 19.891,-10.11 29.997,-15.16 -4.075,-2.61 -7.989,-5.38 -11.903,-8.32 z m 573.35,285.13 c -19.889,0.97 -40.108,0.97 -59.178,0.32 -1.793,16.63 -2.281,33.26 -2.281,48.42 18.582,2.28 34.887,-0.33 53.637,0.33 1.468,7.82 2.605,16.3 0.812,24.13 l -0.812,1.14 c -25.438,1.47 -53.965,1.47 -79.883,-1.96 l -1.797,-1.79 c 1.797,-22.99 3.75,-46.95 6.687,-69.62 l -2.937,-2.93 c -31.133,-1.79 -60.317,-9.61 -88.848,-15.48 -5.543,15.16 -8.805,30.64 -13.363,45.81 l 2.281,1.95 c 15.813,2.93 31.785,6.2 47.274,10.6 -0.973,8.15 -2.934,15.97 -5.051,23.8 -27.063,-3.75 -52.168,-10.76 -76.949,-19.24 v -4.56 c 6.519,-22.17 15.164,-43.53 20.218,-66.19 -21.687,-7.66 -42.715,-15.81 -63.257,-25.43 -2.93,1.79 -6.192,1.79 -8.637,0.65 -5.055,-4.4 -10.27,-8.31 -14.836,-12.55 -8.641,13.69 -15.977,28.53 -22.985,42.87 16.137,8.64 32.93,15.65 49.067,23.32 -0.977,8.14 -4.727,16.62 -9.942,23.31 -26.25,-11.09 -52.167,-22.83 -76.621,-39.13 11.575,-21.19 24.778,-41.41 37.496,-62.11 -24.777,-17.44 -50.699,-32.93 -73.363,-53.31 l -9.617,-8.47 c -10.594,10.59 -20.703,22.82 -31.789,35.05 8.152,9.94 18.914,17.44 28.855,25.59 5.543,4.73 13.039,8.8 18.094,14.34 -4.074,6.69 -8.801,12.56 -14.015,18.91 -26.907,-17.44 -50.704,-37.82 -74.34,-62.92 15.484,-15.81 35.539,-35.87 51.023,-51.35 l -7.008,-7.67 c -2.609,-0.98 -5.054,-1.95 -7.5,-2.77 -6.195,-2.77 -12.39,-5.54 -18.422,-8.47 3.262,3.91 6.688,7.66 10.11,11.41 l 6.519,7.5 c -16.629,18.09 -33.91,31.79 -51.023,51.35 28.199,31.14 61.129,55.59 92.922,79.55 h 2.121 l 24.777,-36.19 v -3.42 c -15.164,-11.09 -30.648,-22.5 -44.34,-35.05 v -1.96 c 4.887,-6.52 9.618,-11.08 15.161,-17.28 21.519,16.63 42.871,33.91 65.531,48.75 -13.039,20.38 -25.266,41.08 -37.817,61.46 33.746,19.88 66.996,38.47 102.211,52.49 5.871,-14.02 12.063,-28.86 16.957,-43.69 l -0.328,-1.47 c -16.304,-7.01 -33.418,-13.69 -48.906,-22.82 2.281,-7.83 7.5,-14.18 11.086,-21.52 23.312,10.76 45.484,20.38 69.117,29.51 -7.008,23.31 -15.808,45.64 -22.492,69.28 34.07,10.27 68.793,20.38 104.336,25.43 3.258,-14.67 3.746,-30.97 8.476,-45.48 -9.621,-3.59 -20.378,-3.59 -29.996,-6.69 -7.015,-0.97 -14.023,-2.44 -20.218,-5.86 l 5.054,-22.99 c 10.762,0 20.379,5.22 31.137,5.54 13.691,3.43 28.039,4.89 41.734,7.5 -0.648,23.97 -5.05,48.09 -7.011,71.73 l 0.816,1.47 c 35.539,2.61 71.731,4.4 107.273,1.47 1.46,-14.84 -2.61,-30.65 -1.96,-45.16 0.82,-2.12 -1.79,-1.79 -3.26,-2.12 -15.166,0.65 -34.072,2.12 -48.092,0.33 -1.141,-6.69 -0.816,-16.31 0,-23.97 18.422,-0.97 36.191,-1.63 53.962,-2.44 l -0.49,-1.31 c -1.79,-3.26 -3.59,-6.68 -5.38,-9.94 z m 550.2,-471.3 1.31,-7.82 c 8.14,0.49 16.62,1.14 23.96,3.42 l -0.49,5.06 c 1.96,0.97 4.4,1.3 6.19,2.6 0.98,1.3 1.8,3.59 3.27,3.92 1.79,-8.81 2.6,-16.96 3.26,-24.95 -15.49,-1.14 -31.8,-3.75 -46.63,-2.61 -0.81,8.65 -1.63,17.45 -2.77,26.09 0.82,0.16 1.63,0.49 2.28,0.65 2.28,-2.93 5.71,-5.38 9.62,-6.36 z m -44.67,-60.32 c -0.16,26.74 -2.77,53.14 -7.17,78.74 4.24,-4.07 8.64,-8.15 13.2,-10.43 2.61,-18.1 4.89,-36.19 5.06,-55.59 l 1.3,-19.24 1.47,-0.98 67.33,-0.48 c 1.14,-0.98 3.25,-0.33 3.58,-2.12 -0.33,-42.55 -6.19,-83.31 -13.53,-122.11 l -1.14,-1.14 c -14.84,3.75 -30.32,6.03 -45.16,9.29 -2.93,4.4 1.79,8.48 1.15,13.37 3.25,14.35 5.54,29.51 6.68,44.34 -7.83,1.79 -15.65,2.61 -23.8,2.94 -4.73,-28.53 -9.13,-56.9 -16.63,-83.962 5.55,-4.398 14.02,-4.074 21.19,-7.008 16.14,-4.074 31.79,-8.476 47.6,-13.367 l 0.82,-1.14 c -12.23,-38.801 -25.6,-77.274 -44.34,-113.465 l -1.96,-0.813 c -12.88,7.496 -26.9,13.368 -39.94,20.375 5.87,17.446 15.16,33.258 21.03,51.028 -7.66,3.422 -15.16,7.5 -23.15,8.476 -9.62,-25.433 -22.66,-49.883 -35.21,-74.336 20.71,-12.23 41.73,-22.824 62.11,-35.05 -4.4,-9.622 -9.94,-18.911 -15.81,-28.204 -16.31,-25.757 -35.22,-49.882 -55.59,-73.199 h -1.8 c -10.43,9.945 -22.98,20.051 -33.25,29.672 10.27,15.813 24.28,31.301 35.05,47.273 l -0.33,1.469 -18.42,13.043 c -15.65,-19.234 -31.46,-39.613 -48.09,-58.199 l -6.69,-7.336 c 16.63,-18.094 33.91,-31.789 51.03,-51.352 -28.2,-31.136 -61.13,-55.589 -92.92,-79.554 h -2.12 l -24.79,36.191 v 3.422 c 15.17,11.086 30.66,22.496 44.35,35.051 v 1.793 c -4.89,6.683 -9.62,11.086 -15.16,17.445 -21.52,-16.629 -42.88,-34.078 -65.54,-48.746 13.05,-20.375 25.27,-41.082 37.82,-61.457 -33.74,-20.055 -67,-38.473 -102.05,-52.496 -6.03,14.023 -12.22,28.855 -17.11,43.527 l 0.32,1.629 c 16.3,7.012 33.42,13.531 48.91,22.828 -2.29,7.821 -7.34,14.016 -11.09,21.516 -23.31,-10.758 -45.48,-20.379 -69.12,-29.668 7.01,-23.313 15.82,-45.488 22.5,-69.125 -34.07,-10.434 -68.8,-20.375 -104.34,-25.594 -3.25,14.836 -3.58,31.137 -8.47,45.649 9.62,3.582 20.38,3.582 29.99,6.519 7.01,1.145 14.02,2.61 20.38,6.035 l -5.21,22.821 c -10.77,0 -20.38,-5.055 -31.14,-5.543 -13.7,-3.262 -28.04,-4.731 -41.73,-7.336 0.64,-24.129 5.21,-48.09 7,-71.731 l -0.81,-1.468 c -35.378,-2.606 -71.734,-4.563 -107.269,-1.465 -1.468,14.672 2.606,30.644 1.953,44.992 -0.816,2.281 1.797,1.957 3.266,2.281 15.16,-0.812 34.066,-2.281 48.09,-0.324 1.137,6.687 0.816,16.305 0,23.965 -23.965,1.14 -46.953,1.953 -69.934,3.422 -4.082,-23.309 -4.402,-48.907 -8.484,-71.891 -3.75,-1.469 -5.867,0.488 -9.613,0.488 -34.075,4.074 -67.004,10.762 -98.793,19.891 4.566,14.832 8.964,29.668 13.043,44.504 9.941,-0.817 19.886,-5.219 30.32,-6.684 7.008,-1.957 14.836,-3.426 22.496,-4.074 2.934,7.336 2.934,15.809 4.895,23.961 -6.364,2.285 -13.372,2.609 -19.727,4.891 -17.609,4.402 -35.379,8.804 -52.82,14.351 -8.473,-22.504 -14.344,-46.137 -22.989,-68.801 -36.191,10.762 -69.769,26.735 -103.519,44.344 l -1.141,1.141 c 7.5,13.691 15.16,27.718 22.66,41.41 15.813,-7.664 31.465,-16.957 48.09,-23.317 2.446,0.493 2.446,3.426 3.59,5.223 l 7.5,17.109 c -21.523,11.415 -43.691,20.711 -64.394,33.915 -14.02,-19.891 -25.594,-41.735 -38.801,-61.786 -31.789,18.911 -62.274,42.219 -91.453,67 l 0.488,2.282 29.18,32.929 h 3.261 c 11.571,-10.429 25.106,-21.515 37.332,-30.808 l 2.282,-0.328 14.023,18.914 c -18.914,15.808 -39.129,32.925 -58.039,50.699 L 527.441,689.359 C 498.91,717.23 473.316,748.207 450.82,780 l 1.141,2.605 36.519,24.778 c 11.899,-11.738 21.192,-31.461 35.211,-42.875 h 1.793 l 17.442,15.164 c -17.442,21.519 -34.067,43.363 -47.438,66.676 l -1.468,0.976 c -20.704,-12.551 -41.731,-23.965 -62.11,-36.511 -22.172,34.394 -39.617,70.91 -52.168,109.382 2.934,2.606 7.5,2.606 10.11,4.895 10.597,4.074 22.168,7.66 33.257,11.082 6.684,-17.442 13.204,-35.215 22.496,-51.84 8.477,0 15.161,6.359 22.985,9.617 -11.574,25.918 -21.844,52.164 -30.813,79.231 -22.824,-6.684 -45.804,-13.367 -68.793,-20.707 -14.019,41.082 -21.355,87.217 -25.433,132.047 15.488,0.98 31.789,3.59 46.625,2.61 2.117,-20.38 3.586,-41.9 8.804,-61.46 l 1.141,-1.47 c 8.477,0.33 16.301,2.61 23.637,4.73 -3.586,28.7 -8.805,55.43 -9.129,85.26 l -1.305,19.24 -1.465,1.14 -67.328,0.32 c -0.98,1.15 -3.261,0.5 -3.586,2.29 0.16,27.55 2.774,54.29 6.52,80.2 4.238,0.33 8.476,1.8 12.39,2.78 -1.957,-11.74 -3.101,-23.8 -4.566,-35.21 -0.324,-12.56 -2.934,-24.79 -0.648,-37.34 23.308,-1.63 46.949,-1.14 70.914,-2.28 l 0.16,-18.26 c 0.328,-37 5.055,-73.36 12.879,-107.75 l -1.465,-1.47 c -15.488,-2.12 -31.137,-5.55 -46.301,-9.13 -4.402,21.35 -7.34,44.34 -11.086,65.69 -8.148,-0.32 -16.629,-0.98 -23.965,-3.26 3.262,-35.86 10.274,-68.47 19.563,-101.72 20.379,2.933 39.613,10.433 59.504,15.16 4.078,0.328 8.64,4.89 12.554,1.469 7.497,-34.399 22.332,-65.864 37.821,-96.836 l -0.817,-1.957 -40.918,-20.707 -1.957,0.488 c -8.8,17.609 -16.953,35.867 -24.777,54.285 l -22.172,-8.144 c 3.75,-17.77 12.879,-34.075 20.703,-50.7 6.36,-11.414 12.231,-23.64 20.051,-34.398 h 2.121 l 61.129,34.398 0.981,-0.656 c 17.117,-29.18 37.824,-57.707 59.667,-83.953 l -35.539,-31.465 c -14.019,14.02 -24.128,30 -36.191,45.156 -7.172,-2.933 -13.695,-8.152 -20.047,-13.367 15.973,-25.105 36.676,-50.375 58.031,-71.402 l 2.606,0.324 c 18.098,16.301 33.75,34.074 51.355,49.23 22.985,-21.351 45.649,-43.199 71.407,-60.312 l 2.277,-2.609 c -9.289,-13.207 -18.094,-26.575 -27.711,-39.454 -13.695,10.27 -28.527,21.356 -43.367,32.442 -5.051,-4.731 -10.266,-11.41 -14.344,-16.953 v -2.285 c 21.027,-18.743 43.691,-35.051 67.004,-49.883 h 2.934 c 12.55,19.562 26.246,38.797 37.007,59.176 l 1.793,1.468 c 5.703,-3.422 11.41,-6.843 17.282,-10.273 1.625,-2.117 3.418,-4.234 5.539,-6.027 1.793,-0.817 2.281,-2.774 3.586,-4.239 0.328,-0.656 1.628,-0.656 1.628,-1.629 9.946,-7.504 19.891,-14.839 31.79,-18.261 6.359,-2.61 13.371,-3.098 19.73,-4.567 l 2.605,-0.164 c -5.539,-14.344 -10.269,-29.34 -17.441,-43.199 -17.441,7.008 -33.582,16.633 -51.027,23.641 l -10.758,-20.379 c 4.398,-5.055 11.082,-7.336 16.949,-10.598 19.731,-9.617 39.942,-18.582 60.813,-25.598 l 1.793,1.145 23.632,66.516 1.469,0.812 c 15.488,-4.887 31.141,-10.102 46.629,-14.184 14.508,-4.402 29.996,-5.867 45.156,-8.804 -1.468,-15.973 -5.543,-31.785 -7.5,-48.09 l -1.468,-0.652 c -17.282,4.402 -35.375,7.011 -52.493,11.414 -2.117,-7.825 -4.726,-15.489 -6.195,-23.637 26.574,-7.828 53.965,-13.371 82.488,-15.981 3.262,24.129 5.871,48.422 9.621,72.547 29.18,-2.937 60.973,-3.75 90.153,-2.609 1.953,-16.629 2.281,-33.254 2.281,-48.418 -18.586,-2.281 -34.727,0.324 -53.637,-0.488 -1.468,-7.664 -2.605,-16.137 -0.816,-23.965 l 0.816,-1.141 c 25.434,-1.469 53.961,-1.469 79.88,1.793 l 1.8,1.957 c -1.8,22.985 -3.59,46.949 -6.69,69.449 l 3.1,3.094 c 30.97,1.793 60.16,9.621 88.68,15.488 5.55,-15.16 8.97,-30.648 13.37,-45.972 l -2.28,-1.793 c -15.81,-2.934 -31.79,-6.195 -47.28,-10.758 1.15,-8.152 2.94,-15.816 5.22,-23.637 26.9,3.75 52,10.754 76.78,19.235 v 4.402 c -6.52,22.168 -15.16,43.688 -20.21,66.188 14.18,5.05 28.2,10.269 41.9,16.14 3.25,0.485 6.68,1.141 10.1,1.301 5.38,0.488 10.44,3.75 15.65,5.219 7.34,3.257 14.51,7.5 21.03,12.715 7.5,-13.368 14.51,-27.223 21.2,-40.915 -16.3,-8.484 -32.94,-15.492 -49.24,-23.156 1.14,-8.152 4.73,-16.785 9.94,-23.312 26.25,11.09 52.18,22.824 76.62,39.129 -11.57,21.031 -24.77,41.406 -37.32,62.113 24.78,17.441 50.53,32.93 73.19,53.305 l 9.62,8.476 c 10.76,-10.758 20.71,-22.984 31.79,-35.047 -8.15,-10.109 -18.91,-17.445 -28.86,-25.597 -5.54,-4.727 -12.87,-8.801 -18.09,-14.344 4.07,-6.684 8.8,-12.719 14.02,-18.914 27.06,17.285 50.7,37.66 74.34,62.929 -15.49,15.813 -35.54,35.868 -51.03,51.352 22.99,24.777 46.95,52.168 66.51,81.02 h 2.94 c 12.23,-8.473 25.27,-15.973 37.5,-24.778 v -1.957 c -11.58,-15.812 -23.81,-32.113 -35.55,-47.601 4.09,-6.032 10.76,-9.289 16.63,-14.508 h 2.94 c 20.7,24.777 40.27,50.699 54.45,78.414 l -61.13,35.867 v 3.418 c 18.09,28.367 31.13,59.18 43.36,89.828 l 1.46,1.137 c 14.35,-5.867 29.52,-10.43 44.35,-15.973 -5.55,-17.769 -14.02,-34.398 -21.52,-51.676 3.1,-4.89 9.62,-4.89 13.69,-8.152 2.61,-0.816 5.55,-2.609 8.15,-1.957 14.19,28.203 25.93,57.383 34.08,88.524 -22.99,7.007 -46.3,14.015 -69.13,21.027 9.13,34.07 16.31,67 19.57,103.52 4.4,1.47 10.43,0.82 15.16,0.49 l 32.11,-3.1 c 0.49,-19.56 -5.05,-38.8 -7.01,-58.36 7.01,-2.61 14.84,-3.26 22.18,-4.89 6.35,18.91 7.82,40.43 10.43,59.99 0.32,12.55 2.93,24.78 0.81,37.33 -23.31,1.47 -47.11,1.14 -71.08,2.29 z M 825.77,647.461 c 87.543,-24.289 188.46,-25.106 275.84,-0.981 0.97,-0.488 1.95,-0.976 3.09,-1.304 5.05,-1.137 9.46,-4.074 14.84,-5.055 -87.38,-27.547 -182.427,-31.297 -278.446,-8.805 -10.598,2.45 -21.028,5.219 -31.461,8.485 5.543,2.277 10.918,4.887 16.137,7.66 z M 461.418,1152.83 c -7.012,-169.869 75.641,-332.404 210.133,-430.057 0.328,-2.281 0.816,-4.398 1.469,-6.355 0,-3.098 0.324,-6.195 0.98,-9.129 -84.449,59.012 -153.73,143.621 -188.453,237.359 -20.379,52.493 -33.586,109.712 -35.867,169.542 h -1.141 c -0.488,17.94 0,35.54 1.301,52.99 4.078,-2.77 7.828,-5.55 11.902,-8.16 z m 1009.762,-38.64 c 1.46,32.61 -0.49,64.89 -5.38,96.51 3.91,0.33 7.66,2.45 10.92,5.05 3.42,-20.54 5.54,-41.57 6.36,-62.92 h 1.13 c 2.94,-125.69 -37.98,-240.299 -111.34,-337.291 -36.19,-44.836 -77.76,-82.816 -123.24,-112.976 0.65,2.117 1.95,4.074 2.61,6.355 0.32,4.078 1.96,7.664 2.93,11.574 7.99,5.707 15.98,11.414 23.8,17.446 117.05,94.714 184.55,226.437 192.37,376.252 z m -605.141,514.66 c -34.887,-6.68 -68.309,-17.28 -98.629,-31.46 -2.609,-1.14 -5.219,-2.44 -7.824,-3.59 -1.961,1.15 -3.586,2.29 -5.383,3.26 -1.137,0.82 -2.117,2.12 -2.933,2.78 -0.977,0.48 -1.954,1.14 -2.606,1.79 45.32,21.52 93.574,36.19 143.457,43.53 -6.683,-3.59 -13.203,-7.18 -19.726,-11.25 -1.954,-1.79 -4.075,-3.43 -6.356,-5.06 z m 301.101,-472.6 c -2.77,-0.49 -4.57,-2.28 -5.87,-4.07 -0.49,-0.82 -1.14,-1.8 -1.63,-2.78 l -0.98,-2.11 c -6.36,-6.52 -12.71,-11.9 -21.03,-12.88 -9.61,1.47 -18.09,6.36 -26.08,12.39 -1.47,0.49 -3.1,1.3 -5.05,2.28 -1.8,0.98 -3.59,2.12 -5.38,3.1 -14.19,9.94 -34.24,7.66 -50.54,5.21 -8.31,0 -15.65,-3.59 -22.01,-7.99 -2.28,-0.48 -4.24,-1.63 -5.86,-3.09 -1.64,-1.31 -3.27,-2.77 -4.73,-4.24 -0.66,-0.49 -1.47,-1.14 -2.12,-1.96 -0.66,-0.81 -1.63,-1.95 -1.96,-3.25 l -0.16,-0.82 c 0,-0.49 -0.17,-0.98 -0.17,-1.63 0.17,-1.8 1.63,-3.1 4.24,-2.45 l 1.14,0.17 2.12,0.81 2.61,-1.3 0.16,4.07 c 0,0.17 0.49,0.49 1.31,0.98 0.81,0.49 1.79,0.98 2.77,1.47 5.05,3.59 9.62,5.7 15,7.33 5.21,1.8 11.25,2.94 18.91,4.57 13.53,-0.49 22.01,-1.79 31.3,-5.38 6.19,-2.93 10.92,-6.2 14.83,-9.29 l 2.29,-2.12 -1.96,0.81 c -1.63,0.65 -3.26,1.14 -4.4,1.31 -15.65,5.05 -32.28,7.82 -49.72,6.02 -14.51,-2.6 -28.86,-9.77 -38.31,-20.53 -0.17,-0.33 -0.33,-0.49 -0.82,-1.63 -0.49,-0.66 -1.3,-1.8 -1.63,-2.94 -0.33,-1.3 -0.33,-2.61 0.49,-4.24 -0.49,-0.16 -0.98,-0.48 -1.63,-1.14 -0.98,-1.47 -0.98,-3.1 -0.82,-4.4 0.17,-1.14 0.66,-2.28 0.82,-3.42 1.14,-2.94 3.1,-3.91 4.89,-4.57 0.65,-0.33 1.47,-0.49 2.28,-0.81 0.65,-0.17 1.31,-0.49 2.61,-1.3 9.62,-1.64 18.09,-4.9 27.55,-7.02 17.77,-5.37 38.31,-3.42 54.13,4.89 8.96,3.75 17.93,9.13 26.08,15 l 1.63,1.63 1.63,1.14 c 0.49,0.65 0.65,0.82 1.63,1.8 l 1.46,2.44 c -0.16,1.63 -0.48,2.77 -1.46,3.75 l -0.98,0.82 -1.63,1.14 -0.98,0.65 -2.12,1.3 -0.97,0.66 c 5.37,-0.17 11.9,0 14.5,0.32 3.59,1.8 7.01,2.61 9.95,3.92 3.26,1.3 6.19,3.26 8.48,7.17 0.48,0.32 0.97,0.65 1.3,0.97 l 0.98,1.31 c 0.65,0.82 1.14,1.47 2.44,2.45 0.65,1.3 1.63,2.6 2.45,3.91 0.82,1.46 1.79,2.93 2.28,4.56 1.14,2.45 -0.16,5.06 -2.28,6.85 z m -139.55,-50.05 c -1.3,0.33 -2.77,0.49 -4.07,0.98 -2.13,0.65 -3.59,1.63 -4.73,3.43 l 0.82,0.81 c 1.3,2.77 3.74,4.57 7.17,6.69 l 1.63,1.46 c -0.66,-2.44 -0.66,-4.73 -0.49,-7.17 0.33,-2.12 0.81,-4.4 1.3,-6.52 z m 79.23,0.17 c -0.66,-0.33 -1.3,-0.49 -1.79,-0.82 l -2.12,-1.14 c -0.65,-0.32 -1.3,-0.65 -2.28,-0.98 l -1.31,-0.32 c -13.37,-8.81 -32.27,-7.5 -48.9,-3.91 -5.55,0.81 -9.62,5.37 -12.23,10.59 -0.33,0.82 -0.33,1.63 -0.16,2.93 0,1.47 0.32,2.78 0.49,4.24 0.16,2.61 -0.17,5.71 -3.59,7.34 18.26,10.92 44.02,10.43 62.76,2.12 0.98,-0.65 1.96,-1.31 3.1,-1.79 0.98,-0.49 2.28,-0.98 3.26,-1.47 2.11,-1.14 3.43,-2.12 4.24,-3.27 0,-2.76 0.65,-5.86 0.65,-8.63 0,-2.78 -0.49,-4.24 -2.12,-4.89 z m 11.58,7.01 c -1.15,-0.66 -1.96,-0.17 -2.28,1.14 -0.49,2.77 2.28,0.65 3.58,0.82 0,-0.66 -0.98,-1.47 -1.3,-1.96 z m 52.33,60.32 c -3.92,-0.49 -7.66,-1.31 -11.42,-1.96 -3.74,-0.65 -7.49,-1.14 -11.08,-0.65 -5.38,0.16 -10.93,1.14 -15.82,2.28 -1.79,0.98 -3.58,1.79 -5.21,2.44 -1.79,0.66 -3.59,1.15 -5.38,1.8 -3.59,0.97 -7.17,2.12 -10.43,4.23 -9.13,3.59 -18.92,5.71 -28.21,9.46 -6.84,0.98 -13.2,0.49 -20.54,-0.65 -4.4,-1.79 -9.29,-3.26 -14.18,-4.73 -4.73,-1.63 -9.62,-3.58 -14.02,-7.01 -0.81,-1.95 -2.61,-3.1 -4.4,-4.23 l -1.47,-0.98 c -0.49,-0.33 -0.98,-0.66 -1.3,-0.99 -0.82,-0.81 -1.63,-1.62 -2.12,-2.76 -3.42,-2.94 -6.69,-6.36 -10.27,-9.3 -3.43,-3.1 -7.34,-5.7 -11.9,-7.01 -0.82,-0.48 -2.45,-1.46 -2.94,-3.26 1.14,-1.95 3.42,-2.28 5.22,-2.11 h 3.1 c 0.98,0 1.79,0 3.09,-0.17 3.92,1.3 7.18,3.59 10.11,6.36 2.94,2.77 5.71,5.7 8.64,8.48 5.71,6.51 12.55,11.9 21.19,14.67 2.78,0.16 5.06,1.14 7.18,2.28 l 3.26,1.63 c 0.97,0.49 1.95,0.82 3.1,1.3 1.95,-0.48 3.91,-0.48 5.87,-0.48 2.11,0.16 4.23,0.32 6.35,0.32 4.08,0.16 7.99,-0.16 11.41,-2.45 7.83,-1.46 14.19,-4.56 22.99,-6.84 2.12,-1.47 4.57,-2.44 6.85,-3.42 2.28,-0.99 4.56,-1.8 6.19,-2.77 l 1.14,-0.17 h 1.14 c 0.33,0 0.66,0 1.8,-0.49 6.85,-0.97 13.53,-2.28 20.05,-2.61 6.36,-0.32 12.71,0.5 19.24,3.59 1.13,-0.32 1.79,0 2.28,0.65 l 0.97,0.81 0.99,1.31 c 0,0.33 0.16,0.82 0.16,1.14 0,0.82 -0.16,1.63 -1.63,2.29 z M 901.25,954.594 c 3.098,0.652 6.195,1.469 9.129,2.281 3.098,0.816 6.031,1.305 8.969,1.469 3.261,0.816 6.683,0.488 9.945,-0.489 3.422,-0.816 6.68,-2.281 10.266,-3.425 1.629,0.328 2.285,2.609 1.957,4.238 -0.977,1.305 -2.446,2.609 -4.075,3.426 -9.617,9.453 -26.246,7.008 -37.492,2.937 -1.961,-0.168 -4.078,-0.98 -6.195,-1.312 -1.957,-0.321 -3.59,-0.156 -4.895,1.636 -2.609,2.118 -3.093,5.868 -2.609,9.618 -1.793,1.957 -4.727,1.3 -6.684,-0.493 -1.957,-6.191 0.981,-11.738 4.403,-15.648 5.054,-5.215 11.25,-5.379 17.281,-4.238 z m 112,-78.25 c -9.95,-3.258 -20.707,-6.52 -31.953,-7.008 -5.383,-1.309 -10.762,-1.145 -16.305,-0.328 -5.379,0.816 -10.758,2.117 -15.976,2.933 -4.075,0.329 -7.989,0.329 -11.903,0 -3.746,-0.324 -7.496,-0.98 -11.246,-1.468 -7.5,-0.977 -14.836,-1.629 -22.824,0.164 -2.281,0 -4.074,0.98 -6.027,1.957 -0.981,0.648 -1.961,1.14 -2.934,1.629 -0.984,0.328 -2.125,0.816 -3.43,0.816 -2.117,1.141 -3.422,-1.141 -3.582,-2.281 -0.656,-1.469 -0.164,-2.61 0.489,-3.586 0.324,-0.328 0.652,-0.817 0.976,-1.301 0.324,-0.332 0.649,-0.656 0.977,-1.312 10.437,-8.473 26.578,-8.965 39.125,-5.864 4.566,1.793 9.293,1.953 14.347,1.625 4.891,-0.324 9.942,-0.976 14.672,-0.976 9.129,-2.774 18.422,-2.442 27.551,-0.977 8.969,1.465 18.093,4.074 26.733,6.356 1.63,0.652 3.75,1.148 5.38,1.961 1.96,0.812 3.59,2.277 3.92,5.214 -0.98,2.774 -5.22,5.215 -7.99,2.446 z m 35.54,27.551 c -0.99,1.144 -1.96,2.281 -3.1,3.421 -2.29,2.282 -5.22,4.243 -9.62,4.243 l -0.98,-0.329 c -3.75,-2.445 -2.12,-5.707 -1.14,-7.335 l 0.65,-0.981 c 0.17,-0.324 0.17,-0.652 0,-1.141 -5.05,-2.281 -10.76,-3.75 -16.3,-4.726 -7.17,-1.305 -14.18,0 -21.355,1.793 -3.586,0.98 -7.172,1.957 -10.761,2.933 -3.746,0.817 -7.496,1.629 -11.411,1.797 -4.566,-0.168 -8.312,-1.957 -11.574,-3.59 -1.469,-0.812 -3.097,-1.628 -4.726,-2.281 -1.469,-0.652 -2.774,-0.98 -4.567,-1.304 -4.402,1.957 -8.965,3.914 -14.019,5.218 -5.051,1.301 -10.594,1.789 -16.305,0.649 -4.723,-0.649 -9.289,-1.953 -13.691,-3.094 -4.239,-1.145 -8.317,-2.281 -12.231,-2.613 -4.234,0 -8.476,-0.649 -12.547,-0.485 -2.933,0 -5.703,0.485 -8.316,2.61 0.164,0.488 0.324,1.465 0.164,2.277 0,0.981 -0.488,2.445 -1.793,3.266 -3.262,1.465 -5.871,0.648 -7.992,-0.981 -0.973,-0.652 -1.789,-1.469 -2.606,-2.285 l -1.14,-1.137 -0.981,-0.98 -0.648,-0.817 c -0.328,-0.812 -0.653,-1.468 -1.309,-2.117 -0.648,-0.812 -1.301,-1.468 -1.953,-2.121 -1.465,-1.629 -3.098,-3.75 -2.285,-7.82 1.144,-1.801 3.426,-3.754 6.363,-3.426 l 1.141,0.488 c 0.976,0.981 1.793,1.793 2.605,2.606 0.657,0.656 1.469,1.308 2.446,1.797 1.304,0.324 2.769,0 4.238,-0.817 9.293,-5.539 18.586,-4.566 27.391,-2.117 4.238,1.137 8.476,2.77 12.714,4.238 4.239,1.301 8.313,2.446 12.879,2.934 4.235,1.141 8.153,0.324 12.063,-1.145 4.238,-1.464 8.148,-3.746 12.066,-5.543 4.074,-1.464 7.66,-0.972 10.922,0.329 1.629,0.656 3.098,1.468 4.398,2.281 1.305,0.82 2.61,1.793 3.754,2.773 4.071,3.586 11.243,2.446 17.278,0.328 8.644,-6.035 22.008,-7.175 32.608,-4.894 4.07,1.305 8.63,2.285 13.04,3.262 4.24,0.976 8.47,1.957 12.71,3.589 l 4.24,-2.449 c 2.77,-1.633 5.55,0 6.53,2.285 l 0.15,1.465 c -0.97,2.446 -2.11,5.219 -4.4,7.172 -0.81,0.817 -1.79,1.793 -2.6,2.774 z m -109.556,62.601 c 2.121,-0.98 4.563,-1.793 7.008,-2.445 2.449,-0.653 4.891,-1.145 7.664,-1.633 5.055,0.488 10.43,1.633 15.328,4.238 l 0.813,1.305 c 0,0.488 0,1.305 0,2.285 0,0.977 -0.328,2.277 -2.445,3.586 -3.098,0.16 -6.356,-0.164 -9.457,-0.164 -3.098,-0.164 -6.196,-0.328 -9.29,0.164 -8.48,0.813 -13.695,6.684 -15.976,14.672 -3.586,10.922 -2.285,21.026 0.16,31.136 1.145,5.22 2.445,10.27 3.586,15.49 0.977,5.05 1.797,10.27 2.121,16.79 -0.324,7.01 -1.465,14.67 -1.957,22.49 -0.488,7.67 -0.488,15.33 1.633,22.66 -0.492,6.04 -0.168,11.74 0.16,17.29 0.328,5.53 0.488,10.92 -0.16,16.46 1.137,1.96 0.976,3.91 0.488,5.54 -0.164,0.82 -0.488,1.64 -0.656,2.61 -0.324,0.82 -0.324,1.47 -0.324,2.29 l -0.489,1.14 c -0.816,0.65 -1.14,1.3 -1.468,2.44 l -0.489,0.82 h -0.976 c -1.141,0 -1.957,-0.17 -2.61,-0.66 l -1.14,-0.97 -2.774,-1.31 1.797,-0.81 -0.488,-1.14 c -0.656,-10.93 0.973,-21.36 0.324,-30.98 -0.164,-6.84 -1.633,-13.04 -2.285,-19.24 -0.977,-6.35 -1.141,-12.71 0.816,-19.4 0.332,-4.23 0.817,-8.47 1.145,-12.71 0.488,-4.08 0.652,-8.31 0.16,-12.39 -0.816,-4.08 -1.469,-8.48 -2.441,-12.88 -0.821,-4.24 -1.797,-8.48 -3.43,-12.72 -2.277,-14.83 -3.906,-30.481 4.566,-43.684 2.286,-5.055 6.36,-8.317 11.086,-10.27 z m 258.226,630.244 2.45,-2.12 c 13.37,-9.94 27.88,-17.12 43.36,-24.29 -14.83,9.62 -30.16,18.42 -45.81,26.41 z m -184.21,-525.09 c 1.14,-0.82 2.61,0 2.61,1.46 -1.15,2.12 -0.66,3.91 -1.47,6.19 -0.98,2.78 -3.59,4.57 -4.24,7.5 -5.05,8.48 -7.66,17.77 -10.435,27.07 -1.141,2.28 -2.934,4.24 -5.383,4.4 -0.812,-0.65 -1.465,-1.31 -1.789,-2.12 0.324,-7.5 2.285,-15.33 5.219,-22.34 4.078,-7.82 7.338,-17.44 15.488,-22.16 z M 973.469,960.133 c 0.492,-0.32 1.14,-0.649 2.285,-0.485 1.465,0.653 3.258,0.981 5.543,0.981 2.113,0 4.234,0 6.195,0 5.215,0.324 10.758,0.324 15.968,0.973 5.39,0.816 10.6,2.285 14.68,5.707 6.84,3.425 7.01,11.738 6.03,18.586 l -1.79,2.445 c -3.75,0.324 -5.38,-1.629 -6.04,-4.238 -0.32,-1.141 -0.65,-2.446 -0.81,-3.75 -0.33,-1.145 -0.49,-2.286 -0.82,-3.098 -6.03,-8.316 -17.765,-8.805 -27.71,-8.152 l -12.715,-3.098 c -0.324,-0.328 -0.648,-0.488 -0.98,-0.816 l -1.137,-0.813 c -0.816,-0.812 -1.305,-1.793 -0.164,-3.422 z m -22.336,-17.11 c -2.117,-0.328 -1.789,-2.613 -2.442,-4.082 6.032,-3.421 14.672,-6.843 21.028,-1.3 0.816,1.629 2.609,2.933 2.121,5.054 0.164,1.465 -0.977,1.629 -2.121,1.629 -4.563,-3.097 -12.875,-2.769 -18.586,-1.301 z m 40.265,-16.957 c -2.281,1.301 -4.558,2.77 -7.007,4.071 -2.45,1.148 -4.891,2.121 -7.821,2.449 -4.242,1.305 -7.664,0.324 -10.922,-1.141 -1.468,-0.652 -3.101,-1.468 -4.566,-2.281 -1.469,-0.656 -2.773,-1.305 -4.238,-1.633 -7.012,4.403 -14.024,3.586 -20.707,1.141 -3.422,-1.305 -6.684,-2.77 -10.106,-4.402 -3.261,-1.469 -6.523,-2.77 -9.785,-3.75 -0.973,-0.653 -2.117,-0.813 -3.258,-0.813 -1.14,0 -2.445,0.324 -3.582,0.488 -2.449,0.493 -5.386,0.817 -7.34,-1.793 -0.652,-0.816 -0.492,-1.629 -0.164,-2.285 0,-0.324 0.164,-0.648 1.141,-1.789 6.52,-2.769 13.203,-2.609 19.727,-0.164 1.957,0.488 3.75,1.305 5.543,2.121 1.792,0.813 3.421,1.629 5.054,2.445 3.258,1.465 6.356,2.77 9.942,2.602 l 0.816,0.168 c 1.141,0.164 2.285,-0.168 3.586,-0.812 l 2.121,-0.821 c 0.652,-0.32 1.469,-0.648 2.445,-0.648 0.489,0 1.141,-0.164 1.793,-0.324 0.653,-0.165 1.465,-0.493 2.118,-0.817 1.468,-0.492 3.261,-0.98 5.378,-0.328 6.684,5.543 13.043,4.238 19.731,1.629 3.422,-1.301 6.844,-2.934 10.43,-4.234 3.586,-1.145 7.336,-1.957 11.413,-1.633 l 1.14,0.652 1.47,0.164 c 0.48,0 0.98,0 1.63,0.164 0.65,0.16 1.14,0.488 1.63,1.469 0.33,1.625 -0.16,4.398 -2.61,5.371 -5.87,-0.484 -10.431,1.801 -15.002,4.734 z m 601.062,309.904 c 0,8.64 -2.93,17.44 -4.07,26.08 -2.44,3.26 -1.63,7.66 -3.43,10.76 -0.65,8.32 -6.35,14.35 -7.98,22.17 -4.89,12.23 -10.76,22.83 -17.61,34.73 -0.65,8.96 -1.63,16.63 -3.91,24.78 -1.47,1.46 -1.79,2.6 -2.94,4.07 -0.32,1.47 -1.47,2.77 -1.79,4.57 -0.98,0.81 -1.14,2.44 -2.12,3.58 -3.58,7.34 -8.31,15.82 -14.34,21.2 -5.87,9.94 -15.17,18.58 -22.99,27.22 -1.8,1.47 -5.05,3.1 -6.03,5.06 -8.81,9.13 -19.89,16.95 -30.32,24.94 -2.61,0.97 -5.05,2.6 -7.18,4.24 -5.87,3.91 -12.71,7.65 -19.07,11.08 -13.69,5.71 -26.08,12.07 -40.43,17.28 -8.15,2.94 -16.14,6.36 -24.95,7.83 -7.66,0.65 -13.85,5.21 -20.53,7.66 -6.2,1.79 -10.44,6.85 -15.49,9.78 -5.05,4.73 -11.09,7.66 -15.82,11.9 -4.4,2.94 -8.96,5.22 -12.22,8.97 -14.67,11.41 -26.08,30.16 -43.36,39.29 -10.76,3.09 -22.17,8.63 -32.93,7.17 -15.16,7.17 -29.67,14.35 -43.04,24.29 -4.41,4.08 -8.97,7.5 -13.86,11.09 -18.75,19.07 -42.87,32.43 -70.42,32.76 -4.41,-0.65 -8.81,-2.44 -13.05,-1.47 -11.9,20.38 -36.35,22.5 -56.56,29.67 -10.28,3.92 -15.82,13.86 -20.06,23.32 -0.32,2.76 -2.12,4.89 -2.28,8.15 -0.97,2.12 -3.1,3.59 -5.05,4.56 -2.94,1.31 -6.04,-0.49 -8.16,-2.28 -2.11,-6.2 -1.3,-13.04 -3.58,-18.75 -2.44,-4.23 -4.89,-9.13 -7.175,-13.04 -4.727,-7.17 -13.371,-12.88 -20.215,-14.02 -6.68,3.75 -14.184,4.89 -21.52,6.52 -2.769,0.5 -6.519,0 -9.125,0.65 -16.304,-0.65 -33.097,-3.58 -45.812,-10.92 -10.758,-5.7 -20.539,-10.76 -30.648,-16.95 -8.477,-8.15 -19.399,-11.74 -27.879,-19.4 -6.192,-3.59 -10.266,-6.85 -16.297,-10.11 -14.672,-10.43 -34.074,-18.26 -52.821,-16.14 -7.988,-1.14 -14.996,5.38 -21.195,8.8 -1.137,0.82 -2.117,2.12 -2.933,2.78 -6.032,2.93 -6.684,10.1 -10.27,14.5 -2.937,1.47 -1.141,5.39 -3.586,7.34 -2.281,1.14 -5.543,1.14 -7.988,0 -10.434,-8.97 -21.36,-16.14 -26.41,-28.36 -4.563,-10.93 -10.106,-22.18 -8.153,-35.71 -4.402,-3.75 -10.429,-5.86 -15.16,-9.62 -3.258,-2.93 -8.312,-5.7 -11.902,-9.45 -4.238,-4.73 -9.617,-9.62 -12.551,-15.33 0.488,-1.46 -1.141,-1.46 -1.625,-1.95 -10.926,-0.33 -23.316,-0.49 -35.383,-1.79 -16.461,-2.12 -31.133,-9.46 -46.297,-14.68 -14.672,-6.36 -29.179,-13.37 -42.386,-21.84 -6.356,-2.93 -12.227,-8.15 -17.606,-12.22 -7.176,-6.69 -15.976,-11.75 -22.336,-19.41 -4.726,-4.56 -9.289,-9.12 -12.387,-15.16 1.633,-4.4 -3.585,-8.8 0.817,-12.22 -2.934,-4.73 -9.457,-8.65 -11.414,-14.52 -20.379,-8.47 -37.332,-21.68 -54.613,-35.21 -16.141,-15 -31.786,-29.34 -42.875,-48.41 -2.446,-1.3 -1.137,-4.24 -3.586,-4.89 -0.489,-1.47 -1.954,-2.28 -2.766,-3.59 -3.59,-8.48 -8.645,-15.98 -11.414,-24.94 -2.121,-2.61 -2.285,-6.04 -3.59,-8.97 -0.484,-1.47 -1.137,-3.26 -1.469,-4.89 l -1.3,-7.01 c -0.653,-1.63 0.488,-3.75 -1.469,-4.73 -0.817,-1.96 -2.117,-4.73 -0.649,-6.68 -0.984,-5.22 1.465,-8.81 3.418,-12.56 -0.156,-3.42 -3.586,-5.7 -4.886,-8.63 -2.286,-2.78 -4.243,-6.36 -6.52,-9.14 -1.469,-4.72 2.934,-8.63 5.703,-11.57 7.172,-2.28 14.508,0.82 21.36,2.61 9.453,2.12 17.277,7.33 26.242,10.76 2.773,-10.43 5.383,-22.18 15,-29.34 5.051,-2.94 11.574,-3.76 17.441,-3.59 6.031,-2.12 10.274,2.28 14.836,3.91 0.652,0 0.981,-0.49 0.817,-1.14 -1.305,-11.9 3.421,-22.66 9.781,-31.63 7.332,-4.73 13.043,-9.62 20.863,-14.02 -0.648,-6.03 0.816,-11.73 1.797,-16.79 1.957,-2.93 1.957,-7.17 4.074,-10.1 7.012,-14.84 21.031,-23.16 34.563,-30.82 10.269,-3.58 18.91,-4.89 30.16,-1.62 0.652,0.64 2.117,1.13 2.929,0.81 2.125,-7.83 4.895,-15.16 8.481,-22.34 2.117,-2.44 3.75,-5.05 5.219,-7.17 1.629,-4.73 5.703,-7.99 8.472,-11.9 4.239,-5.87 11.411,-7.99 15.164,-14.51 3.098,-9.12 10.758,-17.28 20.051,-20.38 0.977,-1.79 4.238,-0.98 3.75,-3.58 -3.097,-3.43 -3.097,-8.48 -5.539,-12.56 0.32,-7.984 -0.496,-18.257 3.254,-25.593 -0.164,-2.766 1.793,-4.074 2.285,-6.844 0.164,-0.16 0.653,-0.816 1.301,-0.816 1.309,-6.359 6.684,-9.293 10.766,-13.043 1.625,-6.52 6.515,-11.574 11.41,-15.977 3.258,-2.117 7.496,-3.422 11.242,-4.886 0,-1.957 0,-3.75 0.656,-5.383 1.141,-5.539 2.606,-10.926 4.403,-16.141 0.652,-4.074 3.261,-7.988 5.378,-10.922 1.301,-3.906 4.567,-6.843 6.036,-10.429 -2.286,-3.586 -3.914,-7.825 -5.707,-11.575 -3.262,-10.597 -3.59,-19.722 -0.817,-30.484 0.653,-1.469 0.653,-3.266 2.121,-4.566 4.235,-12.227 15.649,-21.356 27.227,-26.899 2.93,-4.074 4.558,-8.312 4.887,-13.367 1.793,-8.641 -1.141,-16.953 -2.61,-25.27 -0.324,-4.402 -0.976,-9.941 -2.277,-14.019 -0.168,-0.977 0.156,-1.793 -0.496,-2.445 -0.16,-6.52 -1.629,-11.739 -2.442,-17.934 -0.164,-2.121 0.16,-3.098 -0.652,-4.402 0,-8.801 -2.121,-19.075 0.977,-27.387 -0.325,-8.965 3.585,-17.113 5.382,-25.43 6.356,-9.781 11.735,-20.871 20.864,-30.16 1.793,0 2.281,-1.957 3.586,-3.422 0.328,-0.656 1.628,-0.656 1.628,-1.629 9.946,-7.504 19.891,-14.839 31.79,-18.261 6.359,-2.61 13.371,-3.098 19.73,-4.567 11.574,-0.648 25.754,-1.465 36.68,1.633 33.09,7.008 56.89,30.484 86.886,44.34 9.786,3.098 19.075,8.152 30.325,7.664 2.445,-2.121 2.769,-6.684 5.382,-7.828 3.254,-7.172 10.27,-11.899 17.278,-14.672 5.379,-2.281 12.222,-2.281 18.91,-2.934 7.988,-0.16 16.629,1.305 23.477,5.547 4.238,0.813 4.89,4.887 8.64,7.004 7.176,-5.375 16.792,-6.519 26.082,-6.519 3.91,-1.789 8.64,-2.118 13.2,-1.629 9.3,3.097 16.31,9.945 21.04,18.422 1.79,3.097 3.58,-0.489 5.05,-1.465 1.3,-1.141 3.42,-1.469 3.91,-2.938 8.32,-7.66 16.14,-14.996 25.6,-21.519 l 12.22,-7.176 c 5.05,-0.813 9.3,-4.234 14.02,-5.703 6.36,-1.469 11.58,-5.539 18.91,-5.539 0.66,0 1.31,-1.145 1.96,-0.168 3.91,-0.813 8.15,-1.301 12.06,-2.766 5.87,0.324 11.74,-1.469 17.61,-1.14 2.93,0.156 5.54,0.488 8.31,-0.329 6.69,0.485 13.04,2.282 19.89,2.77 5.38,0.488 10.44,3.75 15.65,5.219 11.9,5.379 23.64,13.203 31.63,23.636 5.71,1.957 5.22,8.641 9.13,11.899 1.79,6.519 4.89,13.207 8.8,18.91 -0.65,0.656 0.17,1.309 0.65,1.469 -0.16,3.746 1.96,6.519 2.94,9.781 0.49,5.379 3.1,10.105 3.58,15.488 3.43,13.532 4.41,30.485 4.24,42.875 1.96,6.52 0.49,10.758 1.31,17.442 -0.66,3.425 -0.66,6.359 -1.14,9.945 -0.66,4.074 0.32,7.824 1.3,11.742 1.47,3.906 3.42,7.172 4.89,11.082 0,2.281 2.28,3.586 2.28,6.035 5.05,6.844 7.99,14.832 13.05,21.028 0.48,2.769 2.11,4.886 2.61,7.496 2.11,4.242 3.9,8.316 4.56,13.207 0.65,1.465 -0.16,3.75 0.81,5.379 -0.32,6.523 0.49,14.183 -0.81,20.543 -0.16,6.843 -3.59,12.062 -3.92,18.582 4.57,5.054 5.88,11.57 8.16,17.769 0.16,5.379 2.11,10.434 1.3,15.813 1.79,3.261 4.56,4.238 5.71,7.984 2.12,8.805 4.23,19.567 1.79,29.024 0.33,3.586 -2.28,6.359 -1.79,9.781 3.26,-0.164 6.52,-1.305 10.1,-1.793 8.8,0.324 17.93,-2.281 26.58,0.98 3.91,3.094 8.15,-1.308 12.87,-0.98 4.73,1.305 8.16,-2.281 13.37,-0.977 2.77,0.813 2.61,3.75 3.26,6.356 -6.84,3.59 -7.49,10.431 -11.57,15.981 -4.57,8.8 2.61,17.93 3.59,27.05 0,1.15 1.46,1.64 1.14,3.11 3.9,6.52 5.7,14.18 8.63,20.86 0.33,1.47 1.96,2.94 1.8,4.4 2.93,4.4 4.73,9.46 6.52,14.51 2.12,4.89 2.93,11.09 4.4,16.14 2.44,8.15 2.12,15.49 1.47,24.45 -0.16,7.5 -2.61,14.51 -5.22,20.87 -1.14,0.98 -1.47,2.77 -1.79,3.91 0.98,-1.14 3.26,1.14 4.89,0 12.39,0.33 21.03,9.79 28.04,19.41 -0.32,0.97 0.65,1.3 1.14,1.95 0.49,3.09 2.93,5.71 3.59,9.13 -1.8,5.87 5.22,7.66 7.98,11.25 4.4,9.94 8.16,20.7 6.69,32.93 0.81,2.61 3.59,2.77 5.54,4.89 0.82,0.49 2.29,0.98 3.26,0.16 1.14,0.65 2.77,-0.81 4.24,-1.3 6.52,-5.87 12.23,-16.63 22.99,-12.72 6.85,-0.49 13.37,4.57 17.6,9.62 0.17,2.77 3.59,3.42 3.59,6.2 0.33,1.79 0.49,4.07 2.28,5.21 1.8,-1.63 3.92,-4.24 5.39,-6.36 7.49,-5.87 14.66,-14.99 22.98,-18.09 3.58,-2.94 9.29,-1.47 13.53,-3.42 4.4,1.46 8.8,1.46 13.04,2.93 2.61,-3.26 6.85,-6.03 11.25,-6.68 2.45,-1.15 5.7,-1.64 7.99,-2.61 4.56,-0.16 8.47,1.79 13.21,2.12 1.95,2.44 5.7,2.44 8.14,4.07 0.98,1.3 1.8,3.59 3.27,3.92 1.79,-1.97 4.4,-4.08 7.66,-4.08 1.95,-1.96 3.42,0.98 4.89,1.46 -1.31,10.44 -6.2,19.73 -6.04,30.98 z m -236.87,243.72 c 10.27,-4.08 32.61,-0.49 51.85,-10.43 17.44,-8.97 35.04,-13.05 51.18,-24.94 9.3,-6.86 19.08,-13.7 28.53,-20.38 7.17,-7.5 17.78,-17.12 26.08,-22.99 8.48,-7.66 12.88,-18.26 20.88,-25.6 1.46,-5.05 6.52,-8.15 7,-13.53 2.45,-1.3 1.31,-4.24 3.59,-5.7 2.61,-4.4 4.4,-9.29 4.4,-14.51 -32.93,27.39 -59.01,61.62 -99.28,79.71 -67.65,41.25 -208.67,19.89 -242.25,70.1 v 2.13 c 34.23,-21.69 66.67,-14.84 105.8,-13.05 7.17,-0.48 13.69,-1.14 20.05,0 5.06,2.12 16.96,1.14 22.17,-0.81 z m -14.83,12.39 c -19.56,-2.61 -133.35,-11.09 -131.23,21.35 26.08,7.01 52.65,12.55 79.88,9.62 9.13,2.12 46.62,-23.31 51.35,-30.97 z m -47.6,44.01 c -8.97,-3.26 -19.89,-0.48 -29.35,-1.46 -13.53,-1.31 -26.9,-5.38 -40.26,-6.2 -3.59,-0.32 -27.23,-5.87 -28.21,-7.5 -0.65,-1.14 3.43,-11.08 3.75,-13.85 -6.84,-8.32 -30.97,-18.26 -41.89,-16.96 -13.21,-1.14 -25.11,6.68 -38.15,6.03 -26.9,-1.3 -45,-16.13 -68.31,-20.54 9.3,14.19 26.74,29.18 39.78,39.94 55.91,45.97 60.81,6.85 119.01,32.12 34.23,15 56.57,17.77 83.63,-11.58 z m 109.55,-200.84 c -2.29,-2.12 -5.87,-1.95 -8.32,-4.07 -3.26,9.61 -9.78,8.64 -15.16,14.83 7.66,0.49 29.67,-2.44 34.56,-8.64 -3.91,0.16 -7.17,-2.28 -11.08,-2.12 z m 50.7,-50.54 c -30.98,0 -42.55,-27.22 -67.98,-36.51 -0.66,19.07 -16.79,34.89 0.65,61.13 3.42,4.89 8.64,8.97 14.02,11.74 31.3,16.63 44.51,-11.74 53.31,-36.36 z m -109.23,76.95 c -0.16,0 -1.95,0.65 -1.95,0.16 -8.48,3.43 -30.33,3.26 -39.13,0.82 -50.54,-13.7 -95.05,19.07 -126.83,54.61 -4.4,5.05 -9.78,6.69 -14.02,10.92 16.3,4.4 32.77,11.74 49.89,12.72 17.93,0.98 37.16,-6.03 54.93,-8.48 18.42,-2.45 36.36,-1.46 54.77,-2.77 14.19,-0.98 36.85,-6.03 48.1,-14.67 5.22,-4.08 12.88,-7.83 17.28,-12.72 10.11,-11.25 17.12,-23.8 30.32,-32.28 -18.42,-19.4 -50.21,-14.02 -73.36,-8.31 z m -143.95,15.48 c 5.88,-5.21 13.05,-8.3 19.57,-12.87 16.46,-8.81 67,-22.5 83.47,-12.55 0,-0.66 0.97,0.32 1.13,0.65 27.39,8.15 65.38,-3.1 78.9,-29.02 -13.03,-12.55 -24.93,-68.96 -6.19,-78.58 -29.83,-22.66 -38.79,35.87 -78.41,30.81 -5.06,6.36 -27.23,24.13 -35.54,21.69 -4.24,-1.31 -7.34,-7.34 -11.41,-9.3 -9.62,-4.72 -40.92,-2.28 -49.23,4.89 -3.1,2.61 -1.63,9.13 -2.12,12.88 -1.47,9.95 -20.87,67.98 -25.76,76.95 -7.66,14.02 -17.77,23.15 -26.57,36.19 17.28,-3.91 38.31,-29.18 52.16,-41.74 z m 11.58,-125.68 c -6.85,1.3 -10.43,7.82 -16.31,10.59 0.33,4.73 3.43,13.53 5.06,18.1 19.73,-9.78 51.19,-11.09 67.65,5.38 3.59,-1.3 18.91,-13.21 21.52,-16.3 -0.16,-2.94 3.26,-4.41 3.91,-7.18 2.13,-1.63 2.45,-4.73 4.57,-6.35 1.47,-4.41 2.28,-9.3 2.28,-14.02 l -1.3,-1.47 c -6.69,7.33 -10.76,14.99 -18.91,21.68 -3.26,2.61 -7.01,3.75 -8.64,8.15 l -5.22,1.8 c -4.24,-1.8 -4.08,-6.69 -6.52,-9.79 3.1,-13.85 -38.47,-18.75 -48.09,-10.59 z m 0,-363.05 c 1.63,-0.164 3.75,0.324 5.05,1.465 7.99,7.496 11.58,17.605 18.91,24.777 2.61,-2.121 -0.98,-3.586 -1.3,-5.867 -1.15,-4.89 -4.4,-8.64 -6.03,-13.203 -2.77,-5.707 -7.34,-10.762 -8.81,-17.445 -8.96,-12.063 -19.72,-23.969 -28.36,-35.051 -3.59,-4.402 -7.5,-8.965 -10.93,-13.695 -0.81,-0.973 -2.11,-2.606 -2.93,-4.239 -2.28,-2.605 -4.57,-4.562 -6.52,-7.336 -0.65,-2.445 0.65,-3.914 1.95,-5.703 1.96,-0.652 4.09,-0.816 6.53,-0.328 13.2,15 24.94,31.625 37.66,47.117 4.88,2.77 6.68,8.969 9.94,12.875 3.58,6.36 9.46,12.231 12.39,19.727 1.47,-0.488 1.3,-2.606 1.14,-4.074 -0.98,-4.078 -3.43,-5.867 -4.89,-9.457 -3.75,-6.524 -8.81,-12.879 -12.72,-19.403 -6.19,-9.129 -14.01,-15.484 -19.07,-24.937 -7.01,-8.641 -12.72,-17.281 -19.89,-23.965 -5.54,-5.871 -10.59,-13.371 -16.46,-18.098 -8.81,-9.617 -18.26,-20.375 -28.04,-27.875 -3.1,-3.422 -7.34,-5.707 -10.27,-8.804 -5.06,-6.684 -12.88,-9.942 -18.59,-16.141 -4.07,-1.465 -7.34,1.961 -11.25,2.938 -2.28,1.96 -6.68,2.117 -6.85,6.031 7.18,5.543 15.16,11.738 21.85,17.769 5.87,6.684 14.18,14.016 20.05,21.52 0.17,2.117 2.77,4.074 1.47,6.519 -1.3,1.629 -2.94,3.262 -4.89,1.797 -8.15,-7.176 -16.95,-17.773 -25.27,-24.949 -2.93,-1.789 -5.22,-4.562 -7.99,-5.867 -0.16,-1.629 -2.44,-1.953 -3.42,-2.766 -3.75,-3.754 -8.32,-6.851 -12.55,-9.949 -4.4,-1.465 -9.79,1.469 -13.7,3.098 -3.42,0.98 -8.64,1.793 -10.43,4.566 10.11,6.031 17.28,14.184 26.25,21.027 11.08,7.664 18.58,20.543 29.34,28.528 18.91,19.406 33.25,37.988 49.23,58.859 11.41,16.949 21.69,31.785 31.47,49.555 0.81,2.121 1.62,4.726 3.58,6.683 0.98,2.774 2.45,5.215 3.1,8.477 2.12,3.586 2.77,7.5 5.38,11.086 1.14,1.793 1.47,4.398 4.07,5.055 2.13,-1.469 2.45,-3.102 4.57,-5.055 4.56,-5.707 10.44,-10.434 14.02,-16.789 -0.65,-3.75 -3.58,-7.016 -5.22,-10.598 -4.88,-7.828 -9.78,-16.14 -14.18,-24.781 0.65,-1.141 1.3,-2.445 2.61,-3.094 z m -2.61,-122.433 c 0.33,-12.063 -2.93,-23.965 -5.22,-35.864 -1.14,-0.98 -2.28,-2.937 -1.96,-5.054 -0.16,-1.305 -1.13,-2.446 -1.62,-3.75 -1.96,-5.543 -5.71,-10.758 -11.58,-12.391 -9.29,-0.977 -20.05,-0.977 -28.04,2.609 -4.08,1.141 -7.33,3.426 -10.76,4.075 -8.47,4.89 -19.89,10.757 -27.71,15.976 6.03,5.707 12.06,9.453 17.28,15.16 15.81,12.067 29.18,27.879 42.71,41.571 8.97,10.761 18.26,20.054 26.58,31.464 3.75,5.379 9.28,11.086 12.22,16.633 -0.33,-3.59 -2.77,-4.57 -2.94,-8.156 -1.95,-5.051 -3.91,-10.27 -5.05,-15.484 -0.97,-7.172 -2.61,-15.325 -2.61,-22.828 -1.62,-7.661 0,-15.973 -1.3,-23.961 z m -420.923,-7.012 c 2.446,-4.399 5.215,-8.149 9.618,-11.738 7.824,-7.661 15.652,-15.649 23.8,-22.168 0,-1.793 -2.281,-2.774 -3.746,-3.426 -4.242,0 -7.664,3.426 -11.254,5.222 -6.027,6.192 -13.203,7.661 -17.929,14.833 -3.098,3.421 -6.2,6.359 -9.133,8.964 0,1.629 -0.649,0.817 -1.465,2.118 -2.117,3.265 -5.703,5.707 -8.805,8.972 -2.933,2.93 -5.543,7.168 -8.804,10.102 0.168,1.469 -1.625,1.957 -1.789,3.261 -3.582,4.727 -7.5,7.172 -10.27,12.231 -3.75,3.586 -6.035,8.637 -9.457,12.547 -2.445,5.711 -6.848,11.086 -9.617,16.633 -0.653,2.117 -1.957,3.586 -2.285,5.703 -1.953,1.308 -1.301,3.914 -3.262,5.383 -0.973,5.375 -5.375,9.617 -6.68,15.484 -1.797,3.914 -3.261,8.641 -4.242,13.531 -1.301,4.891 -3.746,10.598 -4.891,14.508 1.309,3.098 3.59,5.707 5.219,8.313 h 1.633 c 2.281,-9.125 7.336,-16.625 9.453,-25.27 4.567,-9.613 8.641,-19.395 13.207,-28.688 2.606,-0.816 3.586,-5.707 7.008,-4.238 2.121,0.649 3.098,2.774 3.75,4.891 -0.652,3.746 -1.793,7.336 -3.586,10.273 -0.652,4.403 -3.422,8.149 -5.219,12.059 0,2.285 -2.605,2.773 -2.281,5.055 -0.652,2.933 -2.77,6.031 -3.258,9.453 -2.121,5.054 -4.402,11.578 -6.683,16.632 -0.493,4.235 -2.121,7.985 -2.606,12.223 6.027,5.059 12.223,11.254 17.926,15.981 1.793,-2.45 1.141,-6.036 3.586,-8.317 3.914,-18.258 14.187,-33.582 21.683,-50.051 13.532,-20.699 27.875,-42.382 46.461,-60.48 10.274,-11.734 21.352,-22.984 33.911,-32.438 4.726,-3.753 10.433,-7.335 14.832,-10.925 0.168,-0.649 0,-1.465 -0.653,-1.465 -5.543,-2.774 -11.41,-6.195 -17.113,-8.969 -0.652,0 -1.469,-0.16 -1.309,-0.816 -1.629,0.816 -1.464,-2.278 -3.097,-1.465 -1.953,-1.469 -4.723,0 -7.008,0.98 -7.332,4.563 -11.902,9.617 -19.074,15.813 -2.446,2.773 -4.887,4.562 -8.153,6.359 -2.281,2.442 -5.375,4.074 -7.496,5.863 -2.933,0.981 -5.707,1.961 -8.801,1.797 -1.632,-1.14 -2.613,-2.769 -2.121,-4.73 z m -63.574,17.933 c -0.168,7.504 -1.637,13.696 -0.824,21.524 l 0.824,1.137 c 8.473,-11.411 16.137,-23.637 26.567,-34.887 4.73,-5.867 9.785,-12.551 16.14,-17.445 8.801,-10.266 18.91,-21.028 31.133,-28.528 1.957,-2.117 4.566,-3.258 6.359,-4.726 -2.933,-4.078 -7.82,-5.543 -12.062,-7.172 -1.469,-1.957 -4.238,-2.449 -6.356,-3.422 -9.457,-3.43 -16.625,-8.801 -26.25,-11.25 l -2.445,-1.793 c -7.172,-2.934 -16.625,-3.262 -23.309,0.652 -1.957,0.653 -1.796,2.446 -3.585,2.606 -1.145,0.984 -2.286,2.121 -3.586,3.097 -5.547,11.579 -4.243,24.618 -4.079,38.473 1.305,12.883 -0.652,28.695 1.473,41.734 z m -38.969,97.653 c 1.141,4.074 2.61,7.824 3.102,11.898 3.09,6.035 4.074,10.598 8.477,16.141 0.484,1.137 1.14,1.957 1.953,2.605 10.433,14.512 22.496,26.575 38.312,36.36 l 1.465,-0.817 v -10.105 c -0.324,-1.633 -0.816,-3.59 -1.629,-5.219 v -1.144 c -0.816,-0.649 -1.633,-1.625 -1.469,-2.938 -10.429,-13.691 -27.222,-22.164 -36.351,-37.492 -3.098,-3.094 -5.215,-7.66 -6.199,-12.063 -1.954,-1.629 -0.485,-5.054 -2.446,-6.355 -0.156,-1.469 -0.488,-2.609 -0.488,-4.567 -1.301,-0.488 -0.652,-1.304 -1.625,-1.953 -5.547,1.953 -1.961,10.106 -3.102,15.649 z M 856.582,766.793 c -14.832,11.574 -27.223,25.758 -40.266,38.961 -13.527,17.445 -26.898,32.766 -37.332,51.516 -6.035,13.367 -12.226,23.148 -17.117,36.515 -1.308,5.055 -3.097,10.11 -5.215,15 -2.773,8.149 -6.523,16.949 -3.586,26.25 0.161,3.906 0,7.66 -0.656,11.242 1.145,2.45 -1.793,3.59 -1.14,6.688 l 1.14,-0.981 0.164,0.168 c 0.653,-0.656 0.164,-2.125 0.813,-3.425 0.816,-0.657 1.801,-2.122 1.801,-3.75 3.906,-12.067 12.386,-22.176 17.277,-34.075 5.055,-10.265 11.25,-19.398 17.933,-28.527 2.282,-2.609 4.075,-5.867 6.684,-8.152 3.746,-0.489 4.563,-4.887 7.332,-6.848 15,-16.465 32.766,-26.734 49.727,-40.102 6.351,-6.847 14.668,-11.574 19.886,-18.746 7.985,-6.519 13.692,-14.507 22.332,-20.379 15.977,-16.953 41.411,-12.066 63.418,-13.691 18.586,0.813 36.352,4.234 52.333,11.41 7.17,0.324 12.22,4.563 18.42,7.336 6.03,4.891 11.25,10.106 15.49,16.629 l 1.78,0.648 c 7.67,6.36 14.68,14.672 21.53,21.356 8.96,7.66 17.76,15.328 26.4,23.477 7.83,4.238 13.37,11.902 19.41,17.929 10.59,8.645 18.25,21.524 27.06,32.117 3.75,6.032 8.64,12.067 11.73,18.75 3.11,4.399 4.08,10.594 8.48,12.879 2.13,-1.304 0.82,-4.238 2.94,-5.871 1.46,-1.793 1.46,-5.051 3.91,-6.355 1.14,-2.934 1.63,-6.199 3.58,-8.645 0.5,-4.074 5.55,-8.476 0.5,-11.57 -7.99,-14.024 -18.43,-26.246 -27.39,-39.613 -6.03,-7.664 -12.39,-14.352 -18.75,-22.172 -10.11,-12.227 -20.38,-23.149 -32.61,-34.235 -9.78,-13.203 -23.31,-22.496 -35.7,-33.422 -3.91,-2.773 -6.52,-5.707 -11.41,-7.66 -3.91,-2.121 -7.34,-6.035 -12.39,-6.687 -16.63,-1.301 -33.91,-5.375 -48.746,-14.18 -5.047,1.141 -8.801,3.098 -13.692,4.402 -8.472,1.79 -17.277,1.958 -24.289,-2.117 -3.59,0 -5.867,3.586 -8.965,4.723 -9.781,3.754 -20.703,5.871 -30.812,3.754 -7.336,-0.817 -15.324,-2.121 -22.336,-4.57 -4.398,-2.118 -7.824,2.449 -12.059,2.613 -6.523,3.258 -11.414,7.66 -17.609,11.41 z m 341.208,183.402 c -0.98,0.649 -0.17,-0.328 -0.82,-0.816 -1.3,-2.285 -2.77,-4.57 -3.26,-7.504 -1.95,-3.91 -3.58,-7.656 -5.54,-11.242 -0.49,-2.449 -3.1,-3.914 -4.24,-6.363 -2.77,2.449 -5.54,4.894 -6.03,8.316 -1.79,3.914 -3.1,8.152 -3.59,12.551 -2.77,4.73 0.98,10.109 -1.3,15.164 2.12,5.543 3.92,11.246 6.85,16.789 1.14,2.933 1.79,6.519 4.07,8.64 l 0.17,-0.98 c 1.13,-0.324 1.13,-1.957 2.11,-2.934 3.26,-8.148 9.29,-15.32 14.19,-22.656 0,-3.262 -2.29,-5.707 -2.61,-8.965 z m -10.27,123.895 c -0.49,-10.6 -3.1,-22.82 -4.57,-34.07 -1.47,-6.85 -2.77,-13.21 -4.89,-20.06 -1.3,-9.45 -5.22,-18.09 -6.85,-27.546 l -3.74,-14.508 c -1.31,-2.773 -2.77,-5.867 -3.59,-8.968 -2.12,-4.075 -4.4,-9.454 -6.84,-13.364 -0.49,-1.797 -1.64,-3.261 -2.45,-4.73 -3.75,-6.848 -10.11,-13.039 -11.9,-20.867 -0.66,-1.305 -1.8,-2.282 -1.96,-3.586 -1.47,-0.977 -1.96,-2.442 -3.1,-3.911 -0.33,-1.468 -1.95,-3.261 -2.77,-4.402 -10.76,-14.019 -19.4,-28.203 -33.42,-39.453 -3.1,-3.914 -7.17,-7.5 -10.27,-10.754 -1.96,-1.312 -3.42,-2.449 -4.89,-2.937 -8.64,-8.969 -18.1,-15.493 -27.39,-24.293 -12.23,-9.782 -24.29,-22.661 -36.51,-33.094 -8.32,-7.172 -18.26,-12.391 -29.673,-14.344 -23.312,-7.172 -47.934,-5.707 -71.73,-4.402 -11.086,1.469 -18.422,9.293 -25.922,16.465 -4.563,5.379 -11.575,10.918 -16.137,17.281 -6.523,6.844 -16.469,13.367 -22.984,20.051 -2.774,1.629 -5.383,3.257 -7.989,5.218 -3.101,3.422 -6.851,5.215 -10.437,8.149 -13.039,9.457 -23.801,19.887 -34.563,32.117 -3.91,1.301 -4.558,5.215 -7.332,7.824 -1.14,3.262 -4.242,5.051 -5.058,8.965 -1.465,2.938 -4.071,6.359 -5.539,9.781 -0.164,1.633 -1.465,2.282 -2.121,3.911 -3.911,7.503 -7.985,16.304 -12.387,24.132 -3.098,5.375 -3.75,11.571 -6.688,17.118 -1.793,5.05 -4.562,9.777 -6.031,14.832 -2.277,4.89 -4.402,9.945 -6.031,15 -5.867,21.195 -13.039,43.035 -15.16,65.865 -1.141,0.97 0.164,3.25 -1.305,4.56 -1.301,10.92 -2.609,19.4 -2.934,29.83 -1.629,11.09 -1.14,26.25 -0.488,37.17 8.477,3.1 17.117,7.01 23.317,14.68 3.582,2.28 5.867,6.02 9.773,8.63 2.449,0.82 5.055,1.15 7.664,1.47 -0.648,-3.42 -3.582,-6.36 -5.215,-9.45 -3.914,-7.51 -10.758,-14.02 -10.597,-23.48 1.957,-2.77 3.914,-4.89 7.335,-5.22 4.243,-0.65 7.665,-1.14 12.063,-0.49 -1.629,-0.98 -0.648,-2.44 -0.648,-3.75 2.117,-2.11 5.05,-0.81 7.66,-0.81 -0.328,-1.15 -0.489,-2.94 0,-4.08 14.183,-16.78 33.582,-25.1 56.57,-25.1 1.137,-1.63 3.422,-0.17 5.051,-0.17 1.14,0.65 2.121,0.33 3.426,0.33 18.093,3.59 35.867,10.6 53.632,16.14 3.75,2.77 10.106,4.73 8.805,10.43 -7.008,10.44 -18.586,15.33 -28.039,21.85 -6.523,2.12 -13.695,5.22 -20.379,6.03 -12.226,1.96 -27.715,1.14 -40.594,-2.44 -12.879,-4.73 -24.613,-11.25 -36.679,-15.65 -0.981,-0.17 -2.282,-0.82 -3.098,-0.65 -0.488,0.97 1.305,1.62 2.117,2.11 9.133,6.2 8.805,6.03 17.61,12.23 0.812,0.49 12.714,7.99 14.019,8.32 10.926,5.37 17.277,8.31 33.094,6.84 4.89,-1.96 9.945,-2.77 14.344,-5.05 0.98,-0.16 2.449,0.16 3.261,1.3 0.325,5.05 -1.629,6.85 -5.703,10.27 -7.664,1.96 -13.207,4.24 -23.969,3.59 -7.171,-1.47 -14.343,-2.12 -21.027,-5.71 -4.074,-1.3 -7.5,-3.26 -10.594,-5.54 -6.527,-3.26 -7.664,-6.2 -14.019,-9.13 -2.613,-2.61 -9.297,-6.68 -11.903,-9.13 -3.425,-1.14 -8.476,-3.42 -11.574,-2.94 -0.164,3.11 2.934,4.57 3.586,7.83 0.817,0.98 2.285,1.47 1.633,3.42 2.605,3.11 5.703,6.85 7.656,10.44 6.199,5.38 10.106,10.11 18.75,14.51 13.043,5.54 27.223,5.05 37.492,5.38 23.153,-2.12 36.848,-5.38 52.008,-4.73 10.43,1.95 21.52,2.61 29.828,9.61 1.469,1.47 1.309,3.75 2.121,5.55 -1.953,2.45 -4.07,2.45 -6.355,1.14 -13.855,-6.84 -18.746,-5.22 -30.648,-6.03 -11.739,-0.49 -20.375,0.81 -29.016,1.14 -12.066,1.47 -21.356,5.22 -33.422,3.1 -3.746,0.65 -12.391,-3.91 -15.648,-2.93 0.16,12.71 10.921,23.63 18.093,34.71 7.336,5.39 15.161,11.09 23.961,14.52 5.383,4.23 12.723,6.84 16.145,13.2 5.215,3.91 8.637,9.94 12.551,15.16 1.3,2.94 1.3,5.71 1.3,9.3 l 0.493,1.46 c 9.128,5.54 17.445,11.58 26.246,17.61 0.656,0.81 2.609,2.12 2.769,3.26 4.242,3.42 9.461,7.49 12.391,12.06 2.609,2.93 3.914,-0.81 6.359,-1.63 1.301,-3.26 5.051,-3.58 7.828,-4.89 4.887,-1.96 10.266,-2.6 15.321,-4.07 15.648,-0.82 33.093,-2.61 48.906,-3.26 h 1.308 c 10.11,-1.31 21.35,-1.47 31.63,-3.59 15.48,-2.93 30.97,-4.07 46.46,-8.97 12.38,-3.25 24.61,-7.17 36.68,-11.9 5.21,-2.61 11.73,-5.54 15.97,-9.61 9.62,-6.04 18.58,-13.38 27.07,-21.85 1.78,-2.61 3.74,-4.89 5.53,-7.66 4.24,-4.4 6.85,-9.14 9.95,-13.69 1.96,-3.75 5.38,-7.18 5.87,-11.58 2.44,-1.8 0.32,-5.38 2.77,-7.34 -0.33,-2.28 2.28,-2.6 3.59,-3.74 l 3.42,-0.49 c 0.49,-12.23 2.45,-25.92 2.12,-38.97 1.79,-20.05 -1.31,-39.29 -2.12,-59.5 -0.65,-1.63 -0.65,-4.24 -0.65,-5.38 z m -458.911,85.1 c 2.774,9.94 21.844,49.23 32.446,50.37 2.277,0.33 1.136,-3.42 0.812,-4.4 -1.793,-5.71 -3.262,-11.41 -4.242,-17.28 -1.301,-7.5 -1.301,-14.84 -0.156,-22.33 1.301,-8.48 -12.231,-15.33 -12.883,-19.08 -2.77,-1.79 -12.063,-8.64 -12.715,-2.44 l -0.816,2.28 c 1.468,5.22 -4.239,7.01 -2.446,12.88 z m -12.55,-74.67 c -0.657,0.16 0.328,2.28 -0.657,2.94 -1.789,5.54 -3.914,10.75 -6.191,15.65 -1.793,-0.16 -0.977,2.28 -2.445,2.93 -0.164,2.77 1.957,4.08 2.933,6.36 0.977,-0.17 1.145,0.81 1.957,0.98 l 1.469,0.49 c 0,-0.66 -0.168,-1.47 0.16,-1.96 0.488,0.32 0.488,0.65 0.977,1.3 -1.137,0 -0.489,0.66 -0.489,1.15 0,0.16 -0.16,0.16 0,0.32 0,0 0,-0.16 0,-0.32 0.329,-0.17 1.145,-0.33 1.305,-0.33 0.164,-0.82 0.981,-0.33 1.633,-0.82 2.117,-1.3 0.488,-5.05 1.793,-7.33 -0.488,-9.13 0.324,-15.98 1.141,-24.61 1.144,-1.8 0.328,-5.72 0.812,-8.32 0,-1.47 -1.629,-0.98 -2.281,-0.82 -2.774,3.42 -0.16,9.14 -2.117,12.39 z m -2.934,60.32 c -4.891,-2.28 -6.852,-8.8 -12.879,-8.8 -47.117,-0.33 -19.726,46.13 2.77,44.5 5.707,-0.49 12.554,-2.6 18.097,-1.46 l 0.977,-1.8 c -4.402,-7.66 -6.36,-29.34 -8.965,-32.44 z m 8.965,106.45 c -6.031,-8.63 -10.922,-17.11 -16.141,-26.24 0,0.32 -1.301,0 -1.469,0 0.168,3.09 -0.976,7.5 1.145,10.27 6.844,54.12 85.746,52.82 125.527,54.61 11.246,0.49 24.125,3.91 34.887,2.28 14.996,-1.95 27.059,5.55 40.918,8.48 -0.652,-4.08 -4.566,-6.69 -6.848,-9.78 l -1.793,-1.47 c -2.445,-1.47 -9.293,-6.19 -10.433,-7.82 -49.723,-51.52 -129.602,22.01 -165.793,-30.33 z m 139.219,-0.97 c -9.618,-15.49 -24.129,-19.89 -38.145,-29.51 -15.324,4.24 -31.629,-56.73 -52.004,-55.43 l -1.797,1.8 c -3.586,31.13 13.86,77.11 49.071,82.65 14.347,2.28 26.902,-2.78 42.058,2.77 z m -132.7,34.88 c -30.972,-21.03 -89.988,-49.72 -122.265,-14.83 24.453,3.09 33.746,2.12 55.429,16.3 28.852,19.07 73.848,61.62 112.485,42.87 l 1.14,-0.81 c 12.555,-1.14 37.332,-17.44 49.555,-24.13 -20.699,-10.6 -62.926,3.42 -96.344,-19.4 z m -15.652,-92.27 c -4.074,2.77 0.656,15.98 2.121,19.89 15.328,40.76 27.719,43.2 67.817,44.67 V 1257 c 4.242,0.16 8.316,-1.14 12.23,-1.95 -1.305,-2.13 -4.402,-3.43 -6.687,-4.57 -5.872,-3.1 -8.149,-9.29 -13.528,-12.72 -18.91,-11.9 -29.019,-27.06 -44.18,-42.38 -6.027,2.28 -12.226,-6.2 -17.773,-2.45 z m 76.785,-84.12 c 2.281,0.49 5.215,2.78 6.684,0.65 v -5.86 c -0.653,0.16 -1.629,0.16 -1.953,0.97 -1.633,0.82 -3.586,2.61 -4.731,4.24 z m 84.61,-1.79 c 0.328,-3.1 0.164,-5.71 -1.141,-7.99 -0.816,-1.14 -1.141,-1.79 -1.305,-2.12 -2.281,-2.61 -4.562,-3.59 -7.336,-4.23 -2.933,-0.82 -6.031,-1.47 -8.476,-2.13 -12.067,-4.56 -29.016,-1.46 -40.758,2.45 -1.629,0.81 -3.258,1.47 -4.891,2.28 -0.972,0.49 -1.789,0.98 -2.441,1.79 0.488,1.31 0.812,2.94 0.324,4.57 -0.652,2.28 -0.98,4.56 -1.633,6.84 0,0.98 0.164,1.8 0.493,2.78 0.324,0.97 0.816,1.95 1.14,2.77 10.434,5.86 21.844,11.08 34.559,11.74 5.871,0.32 11.742,-0.33 17.449,-1.63 5.051,-1.14 10.105,-2.78 14.996,-4.25 -1.305,-0.81 -1.957,-2.27 -2.121,-2.93 0.164,-3.42 0.816,-6.84 1.141,-9.94 z m 8.964,4.73 c 0,1.3 -0.488,3.26 -1.304,4.89 5.707,-3.26 10.926,-7.18 15.976,-11.91 -0.328,-0.32 -0.648,-0.48 -1.14,-0.64 -0.489,-0.33 -0.977,-0.49 -1.629,-0.82 -0.489,-0.16 -1.137,-0.49 -1.793,-0.81 -1.469,-0.66 -2.934,-1.15 -4.403,-1.47 -1.304,-0.33 -2.609,-0.65 -3.91,-0.98 -0.488,1.79 -0.332,3.59 -0.332,5.22 0,2.12 -0.156,4.4 -1.465,6.52 z m 159.114,209.32 c 42.38,-20.38 87.38,-7.18 119.82,-46.63 11.57,-14.02 20.05,-33.09 18.75,-52 l 0.48,-2.77 0.17,-2.77 -1.47,-1.8 c -7.01,4.89 -11.41,12.72 -17.77,18.59 -42.71,39.29 -88.68,47.76 -145.25,54.94 -12.06,1.46 -84.933,3.75 -86.402,14.83 -0.164,0.81 18.097,35.21 20.215,40.92 1.304,3.1 3.097,5.87 3.586,9.13 1.14,3.91 3.097,7.33 3.421,11.41 l 2.45,5.87 c 15.972,-7.83 33.418,-43.36 72.05,-38.8 0.49,-5.71 7.18,-6.68 9.95,-10.92 z m -3.75,28.04 c 55.26,-3.75 63.41,18.58 123.41,-7.83 10.75,-4.73 22.82,-14.83 25.59,-26.73 2.77,-11.25 5.05,-39.29 -3.91,-48.1 -4.07,8.48 -13.7,17.78 -19.73,25.28 -25.75,33.58 -119.82,18.74 -125.36,57.38 z m 112.16,48.9 c 3.91,-4.07 8.47,-7.82 11.41,-12.88 3.1,-5.21 14.83,-31.62 13.04,-36.67 -27.55,11.25 -50.05,23.47 -81.18,17.27 -34.07,-6.68 -84.94,-12.22 -101.243,27.72 -3.91,9.62 -11.246,44.01 -11.738,45.16 0.328,6.19 0.168,12.55 1.309,18.75 3.906,-4.57 6.355,-10.44 11.894,-13.37 6.688,-7.01 15.648,-12.56 24.788,-15 40.1,-11.41 90.47,17.28 122.91,-19.57 3.1,-3.58 5.54,-7.82 8.81,-11.41 z m -163.188,74.83 c 0.161,2.45 -2.933,4.24 -1.957,6.52 7.336,16.14 16.625,27.72 21.195,45.65 8.48,34.07 2.28,36.84 0,67.81 16.79,7.67 50.21,-26.57 52,-42.71 -1.46,-9.78 -2.77,-19.56 -3.1,-29.34 -0.81,-29.5 -37.65,-81.02 -68.138,-47.93 z m 206.058,111.67 c 8.97,-6.85 18.75,-11.25 27.72,-17.77 l -1.63,-1.3 c -23.8,-10.43 -54.62,-24.62 -81.19,-14.19 -22.66,-4.4 -37,-8.96 -53.47,-26.24 -6.03,-4.57 -10.6,-10.76 -17.6,-13.7 4.07,25.6 2.6,53.64 11.57,78.26 27.39,73.68 74.66,24.77 114.6,-5.06 z m -179.65,81.02 c 1.63,2.77 2.45,5.87 4.24,8.48 2.61,-0.97 4.24,-4.24 6.03,-6.36 19.4,-20.38 51.84,-11.41 65.54,-35.53 -0.17,-0.17 -1.14,-1.8 -0.66,-1.96 -10.92,-8.32 -19.56,-22.01 -21.84,-35.54 l -5.71,-14.67 c -2.6,-0.66 -3.91,1.63 -5.54,3.26 -9.78,9.94 -31.79,22 -45.97,23.31 -6.85,0.65 -14.021,-1.31 -20.865,0.65 -44.019,12.88 16.945,45.97 24.775,58.36 z m -46.458,-20.54 0.488,-1.14 c -3.426,-9.62 -7.008,-10.27 -7.008,-22.49 0,-11.74 19.395,-32.12 31.461,-28.7 15.647,-21.19 -1.301,-75.48 -12.227,-96.51 -7.824,-9.13 -26.082,-4.73 -32.765,3.59 -1.141,2.77 -3.59,4.89 -5.055,7.66 -5.215,12.39 -13.695,19.24 -26.574,22.83 -8.965,4.07 -17.934,-1.14 -24.125,10.59 -4.727,8.32 -7.828,18.26 -14.02,26.09 -11.738,14.99 -45.812,15.65 -48.418,23.47 48.25,30.32 77.43,64.23 138.243,54.61 z m -144.114,-73.36 c 0.817,1.96 2.61,0.98 4.078,0.33 8.145,-3.26 15.485,-4.24 24.125,-6.36 21.032,-4.89 24.618,-29.83 40.922,-45.65 4.891,-4.72 12.875,-2.93 18.907,-3.58 l -1.301,-3.26 c -13.371,-9.46 -37.496,-15.98 -46.461,4.56 -6.195,13.86 -33.586,7.67 -39.125,35.21 -0.981,4.73 -3.098,14.03 -1.145,18.75 z m -12.875,8.32 0.16,-6.69 c 0,-1.47 -1.468,-1.96 -2.117,-2.77 -1.308,0.65 -3.429,1.8 -5.218,2.61 -1.958,0.65 -3.583,1.79 -4.895,2.45 3.59,1.79 7.992,2.77 12.07,4.4 z m -105.64,-37.33 c 5.379,2.6 5.05,11.08 1.793,14.99 0.488,6.36 0.164,11.41 1.3,17.77 l 0.168,1.31 c 4.399,14.34 11.899,18.9 22.661,27.55 3.75,-3.59 4.726,-8.97 8.8,-12.39 13.86,-11.57 29.184,-15 43.039,-24.46 3.586,-2.93 23.149,-11.08 27.879,-12.06 1.629,-7.5 2.446,-15.97 7.336,-22.17 12.387,-14.68 17.442,-15.49 33.09,-22.66 10.762,-20.05 36.68,-29.02 56.078,-15.65 2.61,1.79 15,11.9 15.981,12.23 3.914,-4.24 12.554,-5.22 12.062,-12.39 8.637,-16.3 22.004,-21.03 39.613,-19.08 0.489,-1.79 0.165,-4.24 -0.652,-6.03 -0.16,-2.94 -0.98,-5.54 -1.629,-8.31 -5.543,-25.92 4.563,-73.2 23.153,-92.93 10.585,-11.25 19.395,-13.36 33.745,-17.77 -1.47,-2.77 1.62,-6.52 -1.31,-7.98 -35.701,5.05 -53.959,34.88 -57.873,35.86 -3.91,4.08 -7.66,8.64 -6.516,14.51 5.375,49.4 -64.234,56.24 -88.683,22.99 -3.43,-4.73 -24.129,3.26 -30.164,5.37 -5.219,10.77 -31.785,21.69 -42.547,27.56 1.141,40.59 -56.895,99.44 -97.981,71.73 -1.628,-3.75 -7.82,-8.97 -10.265,-13.7 0,0 -19.238,10.27 -24.781,11.25 l -1.469,2.45 c 12.879,12.22 21.683,15.16 37.172,22.01 z m 117.215,-135.64 c 12.386,2.29 26.082,0.33 37.656,-4.73 5.543,-2.28 8.801,-13.2 15.648,-6.03 2.449,2.61 4.403,5.71 6.52,8.64 10.433,14.02 43.531,25.6 57.711,12.55 1.961,-1.79 7.664,-7.17 6.687,-10.27 -0.168,-0.49 -0.82,-0.49 -1.305,-0.49 l -0.488,-0.81 c -4.894,1.47 -10.109,-0.32 -15,-1.63 -55.59,-15.16 -29.668,-81.02 -123.734,-43.86 -5.055,1.96 -26.406,11.74 -29.504,14.68 14.992,11.73 26.078,28.2 45.809,31.95 z m -46.625,-15.49 c -14.836,-8.8 -58.852,15.98 -77.598,19.24 6.191,10.11 28.527,22.66 40.43,21.36 16.136,-1.8 46.132,9.61 58.195,4.07 9.621,-4.23 18.91,-8.8 27.715,-14.67 -37.657,-10.76 -27.551,-17.44 -48.742,-30 z m -81.512,83.96 -3.258,-0.82 c -12.883,2.78 -24.945,8.48 -37.984,9.95 -32.282,3.58 -69.946,-0.49 -100.098,-12.55 -14.348,-5.71 -27.879,-14.84 -42.227,-20.71 12.231,28.7 165.469,95.37 183.567,24.13 z m -44.828,-2.93 c 9.617,-0.82 41.89,-12.39 44.828,-12.23 l 0.488,-2.93 c -35.211,-60.65 -107.105,-45.65 -166.285,-42.39 -13.527,0.65 -26.734,0.16 -40.262,0.16 47.113,42.23 96.668,62.77 161.231,57.39 z M 355.125,1260.59 c 0,24.78 17.934,50.37 31.629,69.61 18.426,25.59 56.894,56.24 86.238,67.81 63.25,24.95 179.164,-43.69 229.86,51.68 -0.325,8.8 5.871,17.94 3.914,28.04 -1.305,7.99 -6.032,13.86 -7.336,20.87 8.968,0.81 9.293,13.2 19.074,14.51 37.168,5.37 61.785,-30.81 71.566,-61.95 -14.183,0 -27.715,-6.2 -41.57,-6.52 -25.109,-0.49 -48.09,-5.22 -64.066,-27.88 -2.121,-0.97 -13.371,-14.51 -13.86,-16.79 -3.914,-2.77 0.977,-9.78 5.871,-8.8 9.946,1.79 16.301,6.68 27.059,4.07 15.816,-3.58 29.508,-13.36 45.32,-17.28 0,-3.91 1.793,-9.78 5.871,-11.57 8.965,-3.75 19.563,-4.24 28.528,-9.62 24.781,-15 73.195,-34.4 97.976,-11.9 8.965,8.15 58.524,67.65 71.078,39.77 l -1.464,-5.37 c -9.625,-39.62 -42.227,-78.25 -87.711,-72.22 -57.219,7.33 -80.852,61.62 -151.446,30.15 -41.57,-18.74 -60.316,-60.8 -112.324,-51.02 -8.637,1.46 -18.906,4.73 -25.269,11.09 12.718,34.72 25.269,62.44 60.484,79.55 7.988,3.75 21.191,10.6 30.32,9.29 2.121,1.31 2.121,4.73 1.633,6.85 l -4.074,3.59 c -16.957,-1.31 -23.317,-7.5 -37.332,-10.92 -5.871,-6.2 -17.281,-7.18 -24.781,-12.23 -1.958,-1.47 -15.161,-7.67 -17.282,-7.67 -23.965,0 -37.172,14.84 -69.609,8.48 -9.617,-1.96 -22.66,-3.91 -31.137,-8.96 -21.683,-13.04 -43.039,-23.8 -64.07,-38.31 -20.375,-13.86 -59.664,-64.39 -63.09,-66.35 z m 66.027,-46.79 c -5.543,-0.49 -12.882,-0.98 -15.652,4.56 -4.562,6.03 -5.051,14.68 -5.707,22.17 4.238,2.29 5.707,7.01 9.621,9.79 2.445,2.11 4.07,5.05 5.867,7.82 3.102,1.96 2.774,5.38 5.871,6.85 -4.238,-10.11 -4.566,-20.87 -4.566,-31.3 0.328,-7.17 3.098,-12.88 4.566,-19.89 z m 11.735,16.3 c -7.172,45.81 27.39,37.99 34.07,44.34 6.035,-5.87 8.156,-13.69 15.816,-19.07 -21.031,11.74 -42.71,-19.56 -27.386,-23.8 8.152,-2.28 10.758,14.18 20.215,8.96 12.55,-7.01 -7.176,-30.48 -22.664,-29.01 -8.641,0.81 -18.583,9.78 -20.051,18.58 z m 28.367,60.81 c -9.453,-2.28 -19.399,-4.57 -26.41,-11.57 -1.301,0.64 -1.301,-1.47 -1.469,-0.82 3.754,6.19 9.457,11.57 14.348,16.79 4.402,2.61 7.988,7.49 12.23,10.76 l 0.156,-0.16 c -0.156,-5.06 -0.156,-9.95 1.145,-15 z m -12.555,-94.88 c 33.91,-3.91 52.985,29.18 35.703,57.55 12.879,-7.18 37.332,-15.98 40.758,-31.14 14.344,-63.9 -75.644,-70.1 -76.461,-26.41 z m 85.102,-85.26 c -22.172,-6.36 -57.059,17.61 -52.985,41.9 51.84,-8.64 76.622,70.91 41.571,96.51 -12.551,9.12 -29.832,12.22 -39.614,25.1 -35.539,46.63 28.528,55.75 29.668,59.83 0.653,2.28 -0.488,7.01 -2.281,8.48 -12.715,10.75 -69.125,-33.91 -79.883,-43.21 -1.3,-4.07 -6.027,-5.7 -7.492,-9.61 -19.73,-17.12 -34.894,-54.29 -66.351,-55.59 23.472,50.53 124.871,137.75 183.558,127.64 15.164,-2.61 33.098,-10.27 48.094,-9.94 v -1.63 c -5.867,-6.85 -23.965,-43.04 -23.641,-51.68 -11.734,-9.46 15.328,-20.7 20.868,-22.82 2.121,-5.38 7.335,-8.16 10.765,-12.39 -32.445,-6.85 -40.433,42.38 -58.203,23.64 -7.172,-7.66 -4.238,-13.21 -6.52,-22.34 -1.14,-7.99 6.684,-19.4 10.434,-25.75 9.777,-8.64 13.527,-21.36 20.699,-31.8 0.657,-22 13.535,-21.19 0.328,-57.87 -1.14,-3.26 -3.586,-6.36 -3.586,-9.94 -6.683,-9.13 -13.855,-25.27 -25.429,-28.53 z m 53.465,-60.16 c -12.059,11.74 -38.957,36.52 -33.578,56.74 1.628,5.54 13.531,17.28 16.953,27.38 8.152,23.64 14.183,41.25 6.359,66.36 -7.66,24.12 -25.105,40.26 -32.93,62.92 1.789,4.08 0.489,8.97 3.422,12.55 l 1.469,1.8 c 7.176,-7.34 8.805,-16.14 18.586,-22.18 10.758,-6.68 30.484,-11.73 41.242,-2.6 22.988,-13.54 65.047,-16.63 88.356,-2.29 h 0.98 c -4.242,-23.47 -7.5,-31.79 -0.328,-55.91 -34.555,-9.46 -48.254,-63.09 -17.277,-72.71 2.769,-5.05 9.453,-3.59 14.019,-5.22 0.324,-2.93 -4.566,-9.29 -6.031,-11.74 -9.129,-15.48 -8.317,-48.58 -34.567,-49.23 -20.046,-0.49 -15.644,51.52 -42.543,41.73 -30.32,-10.92 -5.707,-47.76 20.211,-49.88 2.774,-0.33 5.223,0.65 7.989,0.33 0.656,-14.35 -14.996,-26.57 -28.2,-18.42 -16.3,-0.66 -15.816,12.22 -24.132,20.37 z m 39.621,12.72 c -0.657,-0.98 -2.285,-0.65 -3.102,-0.33 -6.355,3.59 -9.945,10.11 -12.715,16.95 0.817,3.59 3.258,5.06 6.196,7.18 5.707,-1.14 4.402,-8.48 6.519,-12.72 0.656,-3.75 1.633,-7.49 3.102,-11.08 z m -8.805,-75.967 c -0.652,-1.633 -1.465,-3.101 -2.121,-4.238 -0.652,-1.309 -0.977,-2.449 -2.121,-2.773 -0.156,0.488 -2.442,2.117 -2.442,4.074 -3.097,8.152 -2.117,19.564 2.286,28.204 0.156,1.79 0.972,3.26 2.113,4.4 7.176,0.98 15.98,-1.14 22.988,1.96 5.383,3.1 8.805,7.66 11.574,13.53 0.164,1.63 1.305,2.28 1.797,3.75 1.137,0.16 1.301,1.63 1.785,2.77 0.168,2.12 -0.812,5.05 0.985,6.03 8.472,1.14 17.605,1.95 23.476,8.15 9.453,8.32 15.161,20.54 18.911,32.12 1.3,1.14 1.464,3.26 2.117,5.05 0.488,0.98 1.304,-0.81 1.304,0.49 0.325,-2.93 2.118,-4.4 2.446,-7.34 0.652,-9.13 -0.492,-15.81 -4.078,-22.82 -4.563,-7.5 -13.856,-13.2 -19.071,-20.86 -3.754,-4.25 -9.297,-6.36 -13.531,-9.3 -8.969,-7.17 -18.094,-14.18 -27.551,-20.86 -7.015,-7.18 -14.836,-14.516 -20.867,-22.337 z m 24.941,-20.379 c -1.957,-3.586 -2.117,-8.152 -4.238,-11.41 -0.324,-1.469 -0.652,-3.422 -1.469,-4.246 -2.117,-0.644 -4.562,0.656 -6.195,1.637 -0.976,1.953 -1.957,2.121 -2.277,4.726 -2.614,4.727 -3.59,9.782 -2.938,15.325 4.239,12.39 14.672,19.234 23.317,28.204 9.125,6.84 18.746,14.02 27.382,21.19 3.915,1.14 5.708,4.4 9.293,6.2 7.665,7 13.204,12.87 20.375,20.7 2.938,3.26 5.215,7.66 7.012,11.25 5.379,0.32 6.848,-4.4 9.129,-7.67 3.102,-7.82 4.078,-17.11 -0.324,-24.45 -0.652,-0.98 -2.117,-1.3 -1.957,-2.44 -7.332,-8.97 -19.399,-11.58 -29.672,-17.28 -8.801,-3.59 -18.258,-7.5 -24.289,-14.349 -9.129,-8.312 -20.215,-14.672 -23.149,-27.387 z m 9.618,-48.089 c -0.653,2.117 -0.977,4.398 -2.282,6.027 -0.488,6.363 -2.605,12.391 -1.136,18.422 0.484,5.054 3.254,8.969 3.586,13.855 0.484,0.492 1.132,0.492 1.132,1.145 1.309,1.789 1.469,4.562 2.774,6.519 9.133,12.555 22.008,25.106 36.848,31.301 8.8,3.262 15.812,7.986 24.453,11.406 0.976,2.29 4.074,1.96 5.05,3.75 2.774,1.96 3.75,4.89 6.524,6.36 1.14,-0.97 1.629,-3.09 2.769,-4.89 1.305,-8.31 4.239,-16.138 6.684,-24.126 1.141,-5.383 4.238,-10.758 1.957,-16.625 -0.488,-4.894 -1.141,-10.109 -4.402,-13.535 -2.774,-4.727 -6.356,-7.176 -11.41,-9.453 0.16,-1.469 -2.122,-1.309 -2.774,-2.446 -18.098,-12.226 -33.578,-28.855 -44.18,-48.906 v -1.465 c -0.488,-0.816 -1.3,-2.121 -1.789,-3.101 -1.632,-4.235 -2.937,-8.313 -3.59,-12.715 -0.652,-0.16 -0.652,-0.98 -1.304,-0.98 0.328,-0.649 -0.977,-0.161 -0.16,-1.137 -2.446,2.117 -2.286,5.379 -3.422,8.965 -1.797,5.382 0.648,14.672 -6.852,17.281 -4.074,3.91 -6.847,8.801 -8.476,14.348 z M 907.938,727.668 c -7.5,-0.652 -14.352,-4.727 -21.032,-7.5 -5.543,-3.586 -12.715,-5.215 -18.422,-8.965 -8.64,-2.933 -16.14,-8.64 -23.148,-13.367 -6.359,-2.613 -11.738,-6.848 -18.586,-8.805 0.328,-0.652 -0.816,-0.652 -1.305,-0.652 -6.195,-2.774 -11.086,-6.359 -17.441,-8.477 -2.121,-1.632 -4.566,-2.933 -7.176,-3.586 -2.285,-0.328 -4.402,-1.468 -6.844,-1.961 -1.796,-0.972 -4.566,0.168 -6.199,-1.136 -6.519,-0.489 -12.387,-3.102 -18.582,-4.567 -1.629,-0.652 -3.914,-2.445 -2.933,-4.566 0.16,-0.488 0.816,-0.816 1.304,-0.488 3.75,-3.098 8.965,-3.914 14.18,-3.098 8.969,1.469 19.566,2.77 26.902,6.848 11.739,6.355 23.801,11.574 35.86,17.281 2.121,0.328 4.242,2.934 6.523,2.934 1.465,1.468 3.746,2.117 5.543,4.078 11.902,8.64 27.387,13.691 40.434,21.027 3.093,0.16 5.539,2.773 8.8,2.285 0.489,-0.98 -1.468,-1.633 -0.652,-3.101 -1.465,-2.77 -2.934,-6.032 -1.629,-8.313 v -4.402 c -7.012,-1.957 -13.695,-5.543 -20.707,-6.684 -6.848,-2.773 -13.691,-6.359 -20.211,-9.781 -0.656,-1.629 -3.75,-1.629 -4.566,-3.098 -10.598,-4.89 -18.426,-11.574 -28.531,-16.629 -0.649,-1.953 -2.93,-1.3 -3.75,-2.445 -3.75,-1.957 -8.309,-5.219 -12.063,-6.031 -5.867,-3.59 -11.082,-4.891 -17.766,-7.172 -15.816,-4.402 -32.609,-4.563 -49.398,-1.305 -6.684,0.653 -13.531,5.055 -20.379,7.664 -8.148,6.684 -19.398,10.43 -23.965,20.867 -2.769,2.446 -4.726,6.352 -7.988,8.149 -0.16,1.793 -1.793,2.285 -1.953,3.586 -5.867,5.871 -6.035,15.812 -8.481,23.637 0.328,9.785 -3.91,20.218 -0.972,29.671 0.484,5.543 0.812,12.227 2.441,17.774 1.793,7.82 2.774,15.973 4.078,23.633 1.137,0.328 0.16,2.121 0.813,2.933 0,3.59 1.789,6.524 1.468,10.114 1.141,1.625 1.141,3.421 1.305,5.539 0.485,0.164 1.141,0.324 1.141,0.816 1.957,-1.633 4.726,-5.219 8.148,-4.402 2.117,0.816 3.75,3.586 3.75,6.035 -0.164,0.484 -0.976,1.301 0,1.465 -0.812,1.14 -0.164,3.586 -1.469,3.91 -1.628,12.39 -15.972,19.89 -26.894,26.25 -11.902,5.543 -21.359,15.808 -20.871,30.648 0,2.278 0.164,5.215 0.816,7.824 0.164,-0.656 1.309,0.165 1.309,-0.98 1.137,-4.566 5.215,-10.922 9.777,-15.324 3.586,-2.281 5.383,-5.867 9.617,-7.008 7.34,-6.195 17.61,-8.152 22.5,-17.285 3.914,-5.047 6.52,-10.266 8.801,-16.137 1.797,-7.496 1.953,-14.18 2.778,-21.351 0.488,-7.176 1.625,-15.329 0,-23.153 0,-1.793 0.156,-3.422 -0.168,-5.379 -2.446,-0.98 0.324,-3.261 0.168,-5.054 -0.493,-4.079 -0.168,-9.129 -0.981,-13.207 1.625,-13.852 -3.59,-28.852 1.793,-41.731 -0.324,-3.426 2.766,-5.215 1.953,-9.129 2.121,-3.75 2.938,-8.152 7.012,-10.762 0.816,-1.464 0.816,-3.75 3.098,-3.261 1.953,-1.301 2.445,-3.586 5.054,-3.586 5.703,-0.653 11.41,-2.934 17.281,-2.77 21.024,3.75 39.286,15.813 58.688,23.805 14.019,8.637 28.039,17.437 42.871,23.961 11.578,7.66 24.945,11.25 37.66,17.117 6.684,2.609 13.696,3.262 20.543,5.543 7.172,-0.488 15.813,2.121 22.66,-1.793 4.239,-0.816 7.825,-3.098 12.227,-4.562 -0.328,-4.895 0.976,-10.598 1.465,-14.84 -12.719,-2.278 -22.989,5.383 -35.699,2.449 z m 23.796,-47.93 c -3.097,1.633 -6.191,4.239 -7.984,7.336 -4.57,4.891 -7.34,11.086 -7.828,17.77 9.129,7.172 22.172,6.195 33.746,4.89 2.609,-3.421 2.934,-7.988 6.359,-10.757 0.489,-1.309 1.953,-2.61 2.77,-3.754 3.586,-5.215 8.152,-9.289 12.879,-13.852 -11.574,-7.016 -28.367,-6.687 -39.942,-1.633 z m 100.746,12.391 c -1.62,-1.793 -2.44,-3.914 -3.09,-6.195 -3.59,-4.079 -8.48,-6.848 -14.19,-6.524 -17.602,0.492 -33.091,8.317 -44.665,21.031 -6.355,5.872 -10.269,12.387 -12.879,20.868 -1.629,4.89 -5.215,11.086 -1.793,15.812 6.684,1.629 13.532,1.469 19.563,-1.629 1.629,0.488 1.469,-1.304 3.097,-0.976 11.411,-5.055 17.934,-19.727 29.507,-25.27 0.98,-1.305 2.12,-2.121 3.59,-2.933 7.01,-3.586 14.34,-7.336 21.84,-10.11 0.65,-0.98 -1.14,-2.609 -0.98,-4.074 z m 227.42,142.969 c -5.7,-7.336 -7.66,-15.325 -11.08,-23.637 -0.66,-6.52 -4.41,-12.551 -1.8,-19.566 1.47,-15.973 -1.14,-30.153 -1.31,-46.786 -1.3,-11.574 -4.56,-22.168 -7,-32.925 -3.59,-8.157 -5.39,-16.961 -11.41,-23.969 -2.61,-9.293 -9.62,-15.813 -16.96,-22.168 -4.4,-3.59 -9.78,-5.707 -14.02,-9.133 -11.9,-5.539 -26.73,-8.965 -41.08,-6.68 -12.23,-0.656 -23.8,3.582 -36.69,5.047 -9.61,3.754 -20.21,7.832 -29.34,12.231 -6.03,4.238 -13.36,8.476 -17.93,13.695 -8.8,6.844 -15.81,17.117 -26.73,21.356 -8.48,6.519 -15.49,12.062 -25.27,15.324 -1.47,0.812 -2.28,2.281 -3.1,2.605 0.33,1.141 2.61,0.164 4.4,0.164 2.77,1.629 5.87,-1.468 9.3,-0.812 0.81,-1.469 1.63,-0.489 2.6,-1.145 7.18,-2.117 13.21,-4.726 19.73,-8.312 1.47,-0.653 2.77,-3.422 4.89,-3.586 2.94,-4.238 7.66,-7.008 12.55,-9.621 5.06,-4.403 10.11,-7.5 15.65,-10.922 5.22,-4.403 12.23,-7.988 17.61,-11.735 4.08,-0.82 6.68,-4.078 11.09,-4.726 16.95,-6.852 35.53,-12.555 55.26,-11.254 5.38,-0.488 11.25,-0.648 16.3,1.957 4.08,4.566 11.25,6.199 11.25,12.883 -4.4,3.586 -8.48,-2.281 -13.37,-0.817 -13.85,-2.449 -27.55,-0.98 -40.43,2.118 -5.38,0.164 -10.27,2.773 -15.65,4.074 -4.56,2.285 -10.11,3.586 -15.16,6.519 -8.64,4.571 -16.79,9.457 -24.78,15.493 -5.87,4.238 -12.06,7.66 -17.28,12.226 -4.89,3.914 -9.94,8.477 -15.48,10.594 -10.44,5.707 -22.5,9.945 -34.89,9.457 -6.2,0 -12.07,0.488 -17.12,-2.285 -2.28,1.144 -4.728,2.933 -5.869,4.894 0,-0.164 -0.488,0.817 0,1.305 5.379,2.117 10.759,4.562 16.629,5.219 4.89,2.929 11.41,2.769 16.63,4.234 13.53,1.633 25.26,-2.766 37.66,-5.867 13.85,-5.383 27.71,-11.738 40.75,-17.934 21.03,-9.129 38.8,-24.133 62.44,-28.035 -0.16,-0.656 0.32,-0.984 0.65,-1.144 1.8,0 3.26,0 4.73,-0.168 2.61,-0.157 4.56,-1.625 6.84,0 2.12,-0.649 5.06,0.816 7.18,1.468 4.4,0.981 10.11,0.981 12.55,5.707 2.45,6.684 7.17,12.227 10.27,18.582 1.8,2.61 0.49,7.176 3.59,9.622 4.73,15.816 5.05,33.746 6.52,50.859 -1.14,2.937 -0.49,6.687 0,10.273 0.82,3.75 0.33,7.332 0.33,11.25 1.3,2.934 1.79,6.032 2.6,8.969 1.47,10.758 7.17,19.883 11.74,29.344 3.43,7.824 5.22,16.297 7.82,24.289 0.17,1.793 0.17,3.094 2.29,4.242 2.61,3.746 5.54,8.801 9.78,10.43 5.87,5.539 10.92,9.781 16.46,14.996 0.49,-1.469 1.15,-3.586 1.15,-5.051 3.58,-20.375 -5.38,-37.496 -15.49,-53.148 z m 14.02,81.019 c -3.26,-4.234 -6.03,-9.777 -9.29,-13.855 -3.59,-2.77 -7.34,-5.707 -10.76,-8.801 -0.82,1.305 0.33,2.609 -0.33,4.727 -0.65,5.214 -2.61,10.269 -3.75,15.652 -3.91,13.691 -14.83,24.125 -23.64,34.558 -11.9,12.555 -23.8,25.758 -30.81,41.735 -3.42,6.031 -4.89,13.047 -5.87,20.707 3.26,14.5 6.69,29.02 8.81,44.18 0.81,6.36 2.77,12.87 2.28,19.23 -0.16,0.33 1.14,0.82 0,0.98 0.65,0 1.14,0.65 0.65,1.31 l 0.49,-0.66 v -1.47 c 0.32,-4.89 1.79,-8.63 2.45,-12.87 1.79,-4.57 0.49,-7.99 3.42,-12.23 0.16,-3.75 2.12,-6.85 3.1,-10.43 2.93,-8.32 9.94,-15.82 16.13,-22.5 4.08,-4.4 8.16,-9.13 13.05,-12.39 8.31,-9.619 18.74,-18.912 27.22,-29.51 5.71,-6.359 9.79,-13.691 12.72,-21.683 5.38,-11.899 3.1,-27.875 -5.87,-36.68 z m 0,173.133 c -0.65,-2.45 1.79,-7.17 -2.28,-7.17 -11.58,0 -24.29,10.92 -33.59,17.28 -6.35,-3.59 -13.2,-23.48 -12.71,-30.81 0,-6.2 -3.1,-13.04 -2.45,-19.89 -0.65,-0.33 -0.32,-1.3 -0.98,-1.64 -14.34,19.73 2.13,67.82 -12.38,86.41 9.61,20.54 13.04,13.37 21.02,22.82 25.43,0 39.29,-11.9 51.2,-32.77 -4.24,-4.56 -5.22,-11.57 -10.93,-14.67 -1.3,-6.03 0.16,-14.18 3.1,-19.56 z m 15.81,-126.344 c -0.32,0.328 -1.14,0.328 -1.63,0.492 -4.89,14.344 -30.81,39.452 -42.22,51.192 -0.65,5.86 -12.88,26.73 -8.64,31.13 20.05,-22.99 60.32,-46.134 52.49,-82.814 z m -0.32,47.284 c -7.34,16.62 -34.24,28.2 -46.79,53.63 0.33,4.07 -1.63,6.36 0,10.43 1.47,3.75 -3.59,3.59 -1.79,7.02 8.15,-1.64 14.34,-8.65 22.65,-10.77 6.36,-1.79 12.56,-0.65 19.08,-1.62 7.99,5.21 2.77,14.34 5.05,21.02 29.35,-5.38 23.48,-45.65 28.04,-66.02 2.29,-10.27 8.15,-15.65 11.41,-24.294 -11.24,-2.606 -32.76,-0.652 -37.65,10.604 z m 80.04,92.1 c -3.42,-18.42 -14.34,-32.77 -17.77,-49.72 -2.44,-17.28 -17.61,-30.65 -8.15,-49.23 -16.79,1.96 -16.47,48.58 -18.75,60.48 -1.47,7.5 -3.91,14.34 -8.48,20.54 -3.42,4.73 -14.99,13.37 -20.7,15.32 -4.72,1.8 -8.8,1.14 -12.22,4.24 2.28,5.87 6.84,10.6 9.61,16.3 9.95,20.71 -7.66,27.07 19.08,43.53 32.11,9.79 64.06,-28.86 57.38,-61.46 z m -61.13,73.52 c -4.89,-3.91 -9.46,-3.74 -13.21,-9.45 -2.12,-3.1 -4.4,-7.01 -7.01,-9.46 0.49,-1.63 -0.49,-3.1 -1.96,-3.58 l -1.78,-2.94 -1.97,-3.58 c -2.6,0.33 -6.02,3.42 -7.82,5.22 -5.21,8.96 -37.82,18.74 -47.44,16.46 -5.86,-1.47 -17.12,-12.88 -22.17,-16.63 l -1.79,0.65 -0.49,2.94 -0.16,-1.47 c -1.8,19.57 -4.08,67.98 -9.46,84.77 1.3,1.3 2.44,3.26 2.44,5.22 3.27,-0.82 5.55,-3.92 9.14,-3.75 18.91,-11.9 51.84,-6.19 64.23,12.88 2.44,-0.66 5.86,-1.96 7.01,-4.57 8.64,-5.54 12.38,-15.97 17.11,-24.78 -0.81,-3.91 2.61,-6.84 2.28,-10.59 l 3.59,-3.1 c 6.69,2.12 7.18,10.43 11.74,15 3.1,14.99 1.79,23.15 -3.1,37.66 8.8,0.65 26.25,-12.39 25.92,-21.52 -0.65,-16.14 15.65,-60.98 32.61,-64.56 1.63,-2.12 4.88,-1.14 6.03,-3.75 4.24,-1.95 9.29,-1.3 13.86,-2.77 3.58,1.63 7.82,-0.33 11.41,1.79 -24.13,-37.98 -57.55,18.91 -89.01,3.91 z m 154.05,47.44 c -8.8,-2.77 -13.2,14.35 -23.96,15.66 -5.7,0.65 -17.45,-4.57 -19.4,-10.11 -3.1,-8.97 0.33,-25.11 -5.87,-32.77 -19.56,-23.8 -50.86,-16.79 -61.13,11.41 -3.92,10.76 -7.67,13.21 -7.83,25.6 22.01,-4.08 26.09,-8.97 48.09,3.75 17.94,10.43 47.93,44.99 69.94,31.46 3.59,0.49 12.39,-18.09 14.18,-21.52 -2.44,-8.97 2.12,-21.68 -14.02,-23.48 z m 102.38,-13.86 c -17.93,2.29 -12.23,8.32 -32.77,6.36 l -3.75,-0.48 c -26.57,0.98 -67.98,81.67 -79.06,103.52 -9.13,17.93 -34.89,26.08 -41.24,33.09 4.07,1.63 26.57,18.75 25.59,21.52 -25.92,15 -25.27,25.59 -44.18,40.42 36.68,-6.51 76.95,-63.57 94.55,-95.52 7.18,-12.72 23.8,-30.16 28.69,-42.39 10.28,-7.5 18.59,-19.56 28.53,-28.2 10.76,-7.99 21.19,-16.63 31.63,-24.78 6.85,-5.55 -1.47,-14.35 -7.99,-13.54 z m 15.49,21.69 c -2.77,0.65 -21.36,17.28 -24.13,20.38 -2.12,2.44 -6.2,1.63 -7.82,4.72 -2.61,0.82 -4.41,3.1 -6.85,4.41 -2.28,3.75 -6.69,5.54 -8.64,9.78 -14.34,8.64 -17.61,26.24 -29.67,35.21 -0.82,1.96 -15.16,25.27 -16.63,26.9 -0.82,4.72 -7.17,5.87 -6.52,11.25 -5.05,4.07 -4.57,13.36 -11.9,15.16 -22.01,29.83 -42.39,52 -79.07,62.6 -10.1,2.93 -17.61,5.05 -27.55,9.46 -20.05,6.51 -36.68,9.12 -57.55,9.45 -32.27,0.65 -69.44,11.41 -95.53,9.45 -17.93,-1.3 -64.72,-19.56 -71.08,-19.06 -5.21,-2.78 -9.12,2.44 -13.69,4.23 -22.98,8.48 -115.58,-7.34 -121.77,18.91 4.56,-2.28 10.27,-1.79 15.16,-1.63 31.3,0.65 60.8,26.09 92.75,32.28 27.72,5.22 43.04,-20.7 84.13,4.72 96.67,-88.19 196.44,7.34 336.8,-142.96 29.67,-31.47 47.77,-66.03 50.7,-110.04 l -1.14,-5.22" /><path
         id="path18"
         style="fill:#231f20;fill-opacity:1;fill-rule:evenodd;stroke:none"
         d="m 1126.82,364.328 32.65,-56.367 c 4.93,-8.215 9.77,-16.07 13.95,-24.445 l -58.78,-13.02 0.33,2 5.7,44.324 z m 149.84,-163.433 c -11.77,19.882 -23.1,39.488 -34.87,59.371 l -25.93,43.507 -34.25,58.344 -25.23,42.113 -8.71,14.754 -1.68,2.344 -35.12,-7.785 -0.05,-1.563 c -2.55,-19.957 -5.19,-39.542 -7.75,-59.507 l -8.71,-67.465 -7.22,-56.672 c -2.85,-23.91 -6.16,-47.516 -9.37,-71.508 l 22.55,5 c 1.69,11.625 3.3,23.613 4.41,34.332 l 6.24,47.145 0.62,2.468 74.31,16.461 c 14.31,-24.363 27.44,-48.605 41.96,-72.148 l 48.8,10.809" /><path
         id="path20"
         style="fill:#231f20;fill-opacity:1;fill-rule:evenodd;stroke:none"
         d="m 786.938,400.316 c 16.066,-4.464 35.574,-5.828 43.875,-22.109 3.535,-6.633 5.335,-14.039 5.566,-21.477 0.125,-6.242 -0.406,-11.945 -1.758,-17.855 -2.066,-7.301 -4.98,-13.227 -7.609,-19.617 -6.481,-11.332 -18.387,-22.586 -32.407,-24.426 -10.523,-1.863 -20.89,2.074 -32.05,4.238 l 23.648,101.41 z M 824.777,273.93 c 10.325,2.683 20.453,6.183 28.957,12.781 20.84,14.648 30.391,42.758 28.43,68.07 -3.629,35.02 -36.746,51.547 -68.109,58.739 l -71.235,16.335 -54.41,-237.316 47.238,-10.832 22.852,99.652 20.297,-4.656 -0.09,-0.371 14.43,-65.855 9.679,-44.172 47.239,-10.836 c -8.11,39.16 -17.422,78.195 -25.617,116.984 0,0 -0.485,1.281 0.339,1.477" /><path
         id="path22"
         style="fill:#231f20;fill-opacity:1;fill-rule:evenodd;stroke:none"
         d="m 609.398,370.02 34.758,77.367 71.848,-32.289 9.617,21.406 -115.687,52.008 -99.825,-222.082 114.676,-51.535 9.617,21.418 -70.8,31.824 36.168,80.468 55.96,-25.152 9.61,21.422 -55.942,25.145" /><path
         id="path24"
         style="fill:#231f20;fill-opacity:1;fill-rule:evenodd;stroke:none"
         d="m 394.918,337.777 c 25.305,19.575 52.988,41.168 78.828,60.821 l 44.996,35.246 74.188,57.617 2.386,2.023 -18.734,13.5 -50.004,-39.589 -52.277,-42.125 -51.645,-41.207 c -0.293,0.214 -0.656,-0.918 -0.84,0.148 l 20.688,51.348 c 10.851,26.722 21.492,53.14 32.644,79.629 l 20.317,50.238 -40.238,28.992 c -4.317,-11.824 -9.297,-24.563 -14.063,-37 l -16.148,-42.504 -3.7,-9.004 -25.753,-66.847 -21.2,-56.618 c -2.89,-7.238 -6.043,-16.16 -8.629,-23.636 l 29.184,-21.032" /><path
         id="path26"
         style="fill:#231f20;fill-opacity:1;fill-rule:evenodd;stroke:none"
         d="m 1286.73,478.184 c -16.35,-7.09 -32.35,-16.551 -44.09,-29.368 -13.08,-13.496 -20.69,-33.539 -20.17,-52.839 0.12,-30.993 13.27,-61.7 28.6,-90.004 14.81,-26.453 31.96,-50 57.82,-63.145 24.67,-12.469 52.41,-9.336 77.02,3.246 17.36,9.309 34.36,20.129 44.2,36.653 10.34,18.039 9.12,39.543 -0.7,57.91 l -27.63,-14.141 c 7.41,-15.336 9.59,-31.238 2.11,-46.551 -2.81,-6.117 -8.88,-10.922 -14.93,-14.875 -5.4,-2.754 -10.96,-5.175 -16.88,-6.074 -25.54,-4.125 -43.01,17.551 -56.56,35.715 -17.68,26.258 -32.52,56.086 -44.31,85.793 -6.6,18.738 -12.7,37.301 -9.5,56.812 1.95,10.344 8.99,17.356 18.26,22.516 5.73,2.938 11.31,3.66 16.73,3.887 7.78,-0.278 14.6,-4.446 19.89,-8.965 8.88,-8.231 15.75,-18.316 21.44,-29.441 l 38.43,19.652 c -9.83,20.07 -26.42,36.687 -49.14,39.515 -3.73,0.657 -7.44,0.45 -10.84,0.418 -6.77,-0.07 -12.85,-1.48 -19.1,-3.398 l -10.65,-3.316" /><path
         id="path28"
         style="fill:#231f20;fill-opacity:1;fill-rule:evenodd;stroke:none"
         d="m 1043.75,370.875 c -10.6,9.848 -23.48,18.934 -36.35,24.234 -9.845,4.168 -21.205,4.543 -32.185,4.543 -11.36,-0.375 -21.961,-2.644 -31.809,-7.191 -22.34,-8.711 -37.863,-31.43 -40.511,-55.664 -3.032,-24.231 0.753,-49.981 18.554,-65.883 19.309,-18.176 47.711,-16.281 69.668,-28.398 14.393,-6.817 25.373,-20.828 24.613,-36.731 0.38,-6.437 -1.14,-12.496 -3.03,-18.176 -3.79,-9.086 -12.49,-15.144 -20.825,-18.554 -1.891,-0.754 -4.164,-0.754 -5.68,-1.512 -6.437,-1.137 -14.011,-1.137 -20.445,0.758 -19.312,4.922 -34.078,23.097 -42.789,40.137 l -28.02,-27.266 c 13.254,-16.66 32.942,-27.641 53.391,-31.051 9.086,-1.891 20.445,-3.027 31.426,-2.644 28.782,0.375 56.802,15.898 67.402,42.785 9.84,22.34 10.6,53.765 -1.52,75.351 -11.35,19.309 -32.94,28.399 -53.386,33.696 -21.203,6.437 -50.363,12.121 -55.281,37.871 -0.758,7.949 -0.383,16.66 2.648,23.476 5.68,13.25 18.934,17.793 32.563,18.172 21.207,1.516 35.216,-18.551 45.066,-34.074 l 26.5,26.121" /><path
         id="path30"
         style="fill:#231f20;fill-opacity:1;fill-rule:evenodd;stroke:none"
         d="m 1511.49,492.746 13.89,-18.914 -49.43,-36.32 52.22,-71.09 62.56,45.949 13.9,-18.93 -101.31,-74.421 -144.13,196.23 102.23,75.086 13.9,-18.91 -63.48,-46.633 50.2,-68.363 49.45,36.316" /></g></g></svg>